<svg width="80" height="50" viewBox="0 0 80 50" fill="none" xmlns="http://www.w3.org/2000/svg">
<path fill-rule="evenodd" clip-rule="evenodd" d="M50 1.86563C50 0.835269 49.1647 0 48.1344 0H31.8656C30.8353 0 30 0.83527 30 1.86563V14.1344C30 15.1647 29.1647 16 28.1344 16H17.8656C16.8353 16 16 16.8353 16 17.8656V30.1344C16 31.1647 15.1647 32 14.1344 32H1.86563C0.83527 32 0 32.8353 0 33.8656V48.1344C0 49.1647 0.835269 50 1.86563 50H30.1344C31.1647 50 32 49.1647 32 48.1344V35.8656C32 34.8353 32.8353 34 33.8656 34H46.1344C47.1647 34 48 34.8353 48 35.8656V48.1344C48 49.1647 48.8353 50 49.8656 50H78.1344C79.1647 50 80 49.1647 80 48.1344V33.8656C80 32.8353 79.1647 32 78.1344 32H65.8656C64.8353 32 64 31.1647 64 30.1344V17.8656C64 16.8353 63.1647 16 62.1344 16H51.8656C50.8353 16 50 15.1647 50 14.1344V1.86563Z" fill="#FF472B"/>
</svg>
