<svg width="80" height="50" viewBox="0 0 80 50" fill="none" xmlns="http://www.w3.org/2000/svg">
<path fill-rule="evenodd" clip-rule="evenodd" d="M30 1.86563C30 0.835269 30.8353 0 31.8656 0H78.1344C79.1647 0 80 0.835269 80 1.86563V16.1344C80 17.1647 79.1647 18 78.1344 18H33.8656C32.8353 18 32 18.8353 32 19.8656V30.1344C32 31.1647 32.8353 32 33.8656 32H66.1344C67.1647 32 68 32.8353 68 33.8656V48.1344C68 49.1647 67.1647 50 66.1344 50H31.8656C30.8353 50 30 49.1647 30 48.1344V35.8656C30 34.8353 29.1647 34 28.1344 34H1.86563C0.835269 34 0 33.1647 0 32.1344V17.8656C0 16.8353 0.835268 16 1.86562 16H28.1344C29.1647 16 30 15.1647 30 14.1344V1.86563Z" fill="#FF472B"/>
</svg>
