<svg width="80" height="50" viewBox="0 0 80 50" fill="none" xmlns="http://www.w3.org/2000/svg">
<path fill-rule="evenodd" clip-rule="evenodd" d="M50 1.86563C50 0.835269 49.1647 0 48.1344 0H31.8656C30.8353 0 30 0.83527 30 1.86563V14.1344C30 15.1647 29.1647 16 28.1344 16H1.86563C0.835269 16 0 16.8353 0 17.8656V32.1344C0 33.1647 0.835268 34 1.86562 34H28.1344C29.1647 34 30 34.8353 30 35.8656V48.1344C30 49.1647 30.8353 50 31.8656 50H48.1344C49.1647 50 50 49.1647 50 48.1344V35.8656C50 34.8353 50.8353 34 51.8656 34H78.1344C79.1647 34 80 33.1647 80 32.1344V17.8656C80 16.8353 79.1647 16 78.1344 16H51.8656C50.8353 16 50 15.1647 50 14.1344V1.86563ZM48 19.8656C48 18.8353 47.1647 18 46.1344 18H33.8656C32.8353 18 32 18.8353 32 19.8656V30.1344C32 31.1647 32.8353 32 33.8656 32H46.1344C47.1647 32 48 31.1647 48 30.1344V19.8656Z" fill="#FF472B"/>
</svg>
