<svg width="105" height="81" viewBox="0 0 105 81" fill="none" xmlns="http://www.w3.org/2000/svg">
<path d="M4.58068 31.8013C4.60717 31.695 4.68664 31.6418 4.76612 31.6418H7.9716C8.05108 31.6418 8.13055 31.695 8.15704 31.8013L12.6341 48.4854C12.6606 48.6713 12.5811 48.7776 12.3957 48.7776H9.45513C9.34916 48.7776 9.29618 48.7245 9.26969 48.6182L8.26301 44.9785H4.47471L3.49452 48.6182C3.46803 48.7245 3.38856 48.7776 3.30908 48.7776H0.342024C0.156583 48.7776 0.0771084 48.6713 0.1036 48.4854L4.58068 31.8013ZM7.46826 41.7373L6.35561 37.832L5.32244 41.7373H7.46826Z" fill="#6B6B68"/>
<path d="M23.3104 31.8013C23.3899 31.695 23.4428 31.6418 23.5223 31.6418H26.4629C26.5424 31.6418 26.6218 31.6684 26.6483 31.7216C26.7013 31.7747 26.7013 31.8544 26.6483 31.9341L22.1712 48.6182C22.1183 48.7245 22.0388 48.7776 21.9593 48.7776H18.7803C18.6744 48.7776 18.6214 48.7245 18.5949 48.6182L14.1443 31.9341C14.1178 31.7481 14.1973 31.6418 14.3827 31.6418H17.3498C17.4292 31.6418 17.4822 31.695 17.5617 31.8013L20.3963 42.5343L23.3104 31.8013Z" fill="#6B6B68"/>
<path d="M35.8936 31.4028C38.0924 31.4028 39.6819 31.9342 40.6621 32.9703C41.4303 33.7938 41.8012 35.0691 41.8012 36.7959V43.6237C41.8012 45.3771 41.4303 46.6789 40.6621 47.4759C40.1587 48.0072 39.5229 48.3792 38.7547 48.6448C37.9864 48.9105 37.0327 49.0433 35.9201 49.0433C34.7544 49.0433 33.8007 48.9105 33.0325 48.6448C32.2642 48.3792 31.6284 48.0072 31.1251 47.4759C30.7542 47.0508 30.4628 46.546 30.2509 45.9084C30.0654 45.2708 29.9595 44.5004 29.9595 43.6237V36.7959C29.9595 35.0956 30.3568 33.8204 31.1251 32.9437C31.6284 32.4124 32.2642 32.0139 33.0325 31.7747C33.8007 31.5356 34.7544 31.4028 35.8936 31.4028ZM38.3573 37.6461C38.3573 37.0882 38.2778 36.61 38.1454 36.2646C38.0129 35.9192 37.8275 35.627 37.589 35.4144C37.3771 35.2019 37.1122 35.0691 36.8473 34.9894C36.5824 34.9097 36.2909 34.8831 36.026 34.8831H35.7081C34.8869 34.8831 34.2776 35.1222 33.9332 35.627C33.5888 36.1317 33.4034 36.7959 33.4034 37.6461V42.8267C33.4034 43.3846 33.4828 43.8628 33.6153 44.2347C33.7478 44.6066 33.9332 44.8723 34.1451 45.0849C34.3571 45.2708 34.5955 45.4302 34.8869 45.5099C35.1518 45.5896 35.4432 45.6162 35.7081 45.6162H36.026C36.8473 45.6162 37.4566 45.3505 37.801 44.8457C38.1454 44.341 38.3308 43.6768 38.3573 42.8267V37.6461Z" fill="#6B6B68"/>
<path d="M54.4113 41.9766C54.4113 41.8172 54.4908 41.7375 54.6497 41.7375H57.5903C57.7492 41.7375 57.8287 41.8172 57.8287 41.9766V43.6237C57.8287 45.5365 57.3254 46.918 56.3187 47.7682C55.312 48.6183 53.855 49.0434 51.9211 49.0434C51.0204 49.0434 50.1991 48.9371 49.4839 48.7512C48.7421 48.5652 48.1328 48.2464 47.603 47.8213C47.0731 47.3962 46.6757 46.8383 46.4108 46.1476C46.1194 45.4568 45.987 44.6067 45.987 43.5971V36.796C45.987 34.8832 46.4903 33.5017 47.5235 32.6781C48.5302 31.8545 50.0137 31.4294 51.9476 31.4294C52.8483 31.4294 53.6695 31.5357 54.4113 31.7217C55.1266 31.9076 55.7624 32.2264 56.2657 32.6515C56.769 33.0766 57.1664 33.6345 57.4313 34.2987C57.6962 34.9894 57.8552 35.813 57.8552 36.796V37.3539C57.8552 37.5133 57.7757 37.593 57.6168 37.593H54.6497C54.4908 37.593 54.4113 37.5133 54.4113 37.3539V36.9288C54.4113 36.2115 54.1729 35.6802 53.7225 35.3614C53.2722 35.0426 52.7158 34.8832 52.08 34.8832H51.7621C50.9409 34.8832 50.3316 35.1223 49.9607 35.627C49.7753 35.8661 49.6428 36.1584 49.5633 36.4772C49.4839 36.796 49.4574 37.1945 49.4574 37.6196V42.747C49.4574 43.3049 49.5368 43.7831 49.6693 44.1285C49.8282 44.4739 49.9872 44.7661 50.2256 44.9521C50.4376 45.138 50.676 45.2974 50.9674 45.3771C51.2323 45.4568 51.5237 45.4834 51.7621 45.4834H52.08C52.9278 45.4834 53.5371 45.2443 53.9079 44.7395C54.2523 44.2613 54.4378 43.5971 54.4378 42.747V41.9766H54.4113Z" fill="#6B6B68"/>
<path d="M65.4322 31.8013C65.4587 31.695 65.5382 31.6418 65.6177 31.6418H68.8232C68.9026 31.6418 68.9821 31.695 69.0086 31.8013L73.4857 48.4854C73.5122 48.6713 73.4327 48.7776 73.2473 48.7776H70.3067C70.2007 48.7776 70.1477 48.7245 70.1212 48.6182L69.1146 44.9785H65.3263L64.3461 48.6182C64.3196 48.7245 64.2401 48.7776 64.1606 48.7776H61.1936C61.0081 48.7776 60.9287 48.6713 60.9552 48.4854L65.4322 31.8013ZM68.2933 41.7373L67.1807 37.832L66.1475 41.7373H68.2933Z" fill="#6B6B68"/>
<path d="M83.7639 31.6418C85.5124 31.6418 86.837 32.1201 87.7112 33.103C88.4794 33.9798 88.8768 35.2018 88.8768 36.7959V43.6767C88.8768 45.2442 88.4529 46.4928 87.5787 47.4227C86.7045 48.3525 85.4329 48.8042 83.7639 48.8042H77.3C77.1675 48.8042 77.0881 48.7245 77.0881 48.5651V31.881C77.0881 31.7215 77.1675 31.6418 77.3 31.6418H83.7639ZM85.5124 37.5663C85.5124 36.7427 85.3004 36.0785 84.8766 35.6003C84.4527 35.1221 83.7639 34.883 82.8632 34.883H80.532V45.5099H82.8632C83.6315 45.5099 84.2673 45.2708 84.7706 44.8191C85.274 44.3409 85.5124 43.7033 85.5124 42.8797V37.5663Z" fill="#6B6B68"/>
<path d="M99.023 31.4028C101.222 31.4028 102.811 31.9342 103.792 32.9703C104.56 33.7938 104.931 35.0691 104.931 36.7959V43.6237C104.931 45.3771 104.56 46.6789 103.792 47.4759C103.288 48.0072 102.652 48.3792 101.884 48.6448C101.116 48.9105 100.162 49.0433 99.0495 49.0433C97.8839 49.0433 96.9302 48.9105 96.1619 48.6448C95.3937 48.3792 94.7579 48.0072 94.2545 47.4759C93.8836 47.0508 93.5922 46.546 93.3803 45.9084C93.1949 45.2708 93.0889 44.5004 93.0889 43.6237V36.7959C93.0889 35.0956 93.4863 33.8204 94.2545 32.9437C94.7579 32.4124 95.3937 32.0139 96.1619 31.7747C96.9302 31.5356 97.8839 31.4028 99.023 31.4028ZM101.487 37.6461C101.487 37.0882 101.407 36.61 101.275 36.2646C101.142 35.9192 100.957 35.627 100.718 35.4144C100.507 35.2019 100.242 35.0691 99.9767 34.9894C99.7118 34.9097 99.4204 34.8831 99.1555 34.8831H98.8376C98.0164 34.8831 97.407 35.1222 97.0626 35.627C96.7183 36.1317 96.5328 36.7959 96.5328 37.6461V42.8267C96.5328 43.3846 96.6123 43.8628 96.7447 44.2347C96.8772 44.6066 97.0626 44.8723 97.2746 45.0849C97.4865 45.2708 97.7249 45.4302 98.0164 45.5099C98.2813 45.5896 98.5727 45.6162 98.8376 45.6162H99.1555C99.9767 45.6162 100.586 45.3505 100.93 44.8457C101.275 44.341 101.46 43.6768 101.487 42.8267V37.6461Z" fill="#6B6B68"/>
<path d="M51.6563 17.3488C52.663 17.4816 53.9611 17.8004 54.9942 17.6941C55.0207 15.8344 55.1532 13.8153 54.9148 11.9556C55.2592 11.6103 55.6565 11.5571 56.2129 11.6103C56.4778 11.6368 56.6102 11.7697 56.7427 11.9822C57.0606 12.5135 56.9811 13.0715 57.0076 13.6559C57.0341 14.1341 57.0606 14.6389 57.0606 15.1171C57.0606 15.6485 57.0341 16.1798 57.0341 16.6846C57.0341 17.5082 57.0606 18.3052 57.0606 19.1287C57.0606 19.235 57.0871 19.3413 57.0606 19.421C56.7957 20.7228 56.9281 22.7684 56.9811 24.0702C57.0076 24.575 56.8751 25.0001 56.7162 25.4517C56.6632 25.5845 54.7558 27.4708 55.1532 21.1744C55.1532 20.5634 55.0207 19.9258 54.9678 19.3147C54.4644 19.1022 52.6365 19.0756 52.3981 19.0225C51.8153 18.9162 51.7093 18.9693 51.6828 19.5538C51.6298 20.7493 51.6298 21.9449 51.6033 23.1404C51.6033 23.7248 51.6298 24.1499 51.6298 24.7344C51.6033 25.3986 51.3119 25.7705 50.8086 25.7705C50.2523 25.7971 49.6165 25.2923 49.5635 24.761C49.5105 23.6451 49.4575 22.7153 49.431 21.5995C49.431 20.7228 49.484 19.8726 49.484 18.9959C49.484 18.7834 49.484 18.5177 49.3515 18.3583C49.0601 17.9598 49.1661 17.6144 49.431 17.2956C49.9079 16.658 49.6959 12.3276 49.7754 12.0619C49.8019 11.9291 49.8549 11.9556 49.9344 11.8494C50.2258 11.3977 51.8153 11.2649 51.7888 12.7261C51.8153 12.8855 51.8418 13.0449 51.8682 13.2043C51.9742 13.7622 51.9212 14.3201 51.8418 14.9046C51.7623 15.7016 51.6033 16.4986 51.6563 17.3488Z" fill="#6B6B68"/>
<path d="M61.3256 25.6642C61.1137 25.3454 61.1931 25.3986 61.0342 25.0266C60.9017 24.761 60.8752 22.8747 60.8752 22.5028C60.8752 21.3338 60.8488 20.7493 60.7958 19.9258C60.7693 19.4741 60.7693 18.9959 60.7693 18.5443C60.7693 17.9598 60.7693 17.3487 60.7693 16.7643C60.7693 16.3923 60.7163 16.047 60.7163 15.675C60.7163 15.3031 60.7428 14.9577 60.7428 14.5858C60.7428 14.5326 60.6633 13.3371 60.7163 12.6995C60.7163 12.487 60.6898 12.3276 60.8223 12.0619C60.9547 11.7697 61.0607 11.8494 61.564 11.7697C61.67 11.7697 65.7232 11.69 66.1736 11.7697C66.8094 11.7962 66.8358 11.9822 66.8358 12.0885C66.8094 13.0714 66.8358 13.1512 66.2265 13.1246C66.1471 13.1246 65.9086 13.2043 65.4318 13.1512C64.2662 13.098 63.4184 13.1512 62.6767 13.1512C62.5707 13.1512 62.5177 13.2309 62.5177 13.3371C62.5177 14.1873 62.2793 15.0905 62.5442 15.6485C62.9416 15.6219 63.7893 15.6485 64.0542 15.675C64.5841 15.6485 64.9285 15.7282 65.3523 15.7282C65.4318 15.7282 65.5113 15.7016 65.6172 15.7282C65.8822 15.7547 66.1736 15.7282 66.253 16.0735C66.359 16.4986 66.2795 16.7643 65.9351 16.9768C65.6967 17.1096 64.743 17.1096 64.5311 17.1096C64.1337 17.1362 63.7098 17.1362 63.3125 17.1096C62.9681 17.0831 62.8356 17.1628 62.7826 17.455C62.7562 17.5879 62.7561 17.7207 62.7561 17.8535C62.7826 18.6771 62.7826 19.5007 62.8091 20.3508C62.8356 21.201 62.9151 22.0511 62.9681 22.9013C62.9681 23.0607 63.0476 23.8842 63.074 24.0171C63.127 24.0436 63.18 24.0702 63.2065 24.0702C63.6569 23.9905 65.0609 24.1765 65.4583 24.1499C65.8027 24.1233 66.1206 24.1765 66.465 24.1233C66.7829 24.0702 67.0743 24.0436 67.3922 24.0171C67.7631 23.9905 68.028 24.6281 67.869 24.9469C67.6041 25.5048 67.2597 25.6642 66.4385 25.7439C66.1471 25.7705 61.9349 25.7705 61.3256 25.6642Z" fill="#6B6B68"/>
<path d="M37.9074 11.7964C38.7552 12.0355 39.6294 11.6636 40.5036 11.7167C40.954 11.7433 41.4043 11.7699 41.8547 11.7964C42.0136 11.7964 43.0733 11.7167 43.4442 11.7699C43.7621 11.823 45.8814 11.7964 46.3583 11.7964C46.9676 11.823 47.1265 12.195 47.1265 12.8857C47.1265 13.2045 46.7292 13.5233 46.3053 13.5233C46.0139 13.5233 45.7225 13.4702 45.4311 13.417C45.1132 13.3639 44.8218 13.3905 44.5303 13.3639C44.2389 13.3373 43.921 13.417 43.5237 13.4436C43.4707 13.603 43.3647 13.8155 43.3912 14.0015C43.4442 14.5329 43.2852 17.5084 43.2587 17.9069C43.2058 18.4382 43.1263 18.943 43.0998 19.4743C43.0733 20.0588 43.0998 20.6433 43.0733 21.2278C43.0468 21.7857 42.9938 22.317 42.9938 22.8749C42.9938 23.5657 43.0733 24.0704 43.0998 24.7612C43.1263 25.2128 43.0468 25.3191 42.5965 25.5051C42.4905 25.5316 42.411 25.5848 42.3051 25.6379C42.0401 25.7707 41.3249 25.6113 41.1394 25.3457C41.0864 25.2394 41.0335 24.4955 41.0335 24.3892C41.007 24.0704 41.0335 23.911 41.007 23.5657C40.954 22.5827 40.8745 21.5997 40.8745 20.6167C40.8745 19.8994 41.007 19.1821 41.007 18.4648C40.9805 17.5881 41.6163 13.7093 41.007 13.6561C40.2917 13.3639 38.8347 13.6296 38.1194 13.4436C37.722 13.3373 37.2716 13.3639 37.1392 12.8591C37.0862 12.7529 37.0597 11.5839 37.9074 11.7964Z" fill="#6B6B68"/>
<path d="M70.3595 64.3192C70.4125 64.1067 70.492 63.9207 70.5184 63.7082C70.6774 62.433 70.9158 61.1843 71.2337 59.9622C71.4721 59.1121 71.5516 58.0228 71.843 57.1727C72.0285 56.6148 72.0285 56.0569 72.2404 55.5255C72.3729 55.1802 72.5318 55.0208 72.9292 54.9942C73.353 54.9676 73.7769 54.9411 74.0683 55.2864C74.2008 55.4724 74.2538 55.6052 74.2008 55.8178C74.1478 56.0303 73.5915 58.7933 73.459 59.856C73.3795 60.3873 73.2206 60.8921 73.1411 61.3969C73.0352 62.0876 72.9292 62.7784 72.8497 63.4691C72.8497 63.5222 72.8497 63.6019 72.8232 63.6551C72.5053 65.0631 72.1874 66.4712 71.843 67.8792C71.6311 68.7294 71.2602 69.0482 70.439 68.8091C70.2006 68.7559 69.9621 68.57 69.8032 68.4106C69.6972 68.3043 68.77 66.0727 68.6905 65.7273C68.6375 65.4882 68.3991 64.3989 68.3461 64.1864C68.2402 64.213 68.1872 64.3724 68.1607 64.3989C67.8958 65.0897 67.6309 66.4712 67.3395 67.1354C67.101 67.6401 66.8626 68.1715 66.5447 68.6497C66.3593 68.9419 65.9884 68.9153 65.697 68.7559C65.0612 68.4371 64.5314 68.0652 64.3989 67.2416C64.2664 66.3118 63.9485 65.4085 63.7896 64.4786C63.6836 63.9207 63.6571 63.3363 63.6306 62.7784C63.5512 61.6094 63.1538 56.3491 63.1803 55.4193C63.1803 55.1802 63.2863 55.127 63.3392 54.9145C63.922 54.4894 64.8228 54.8348 64.9287 54.9411C65.0082 55.0208 65.1407 55.1005 65.1407 55.1802C65.1407 55.7646 65.3261 56.4554 65.2996 57.0664C65.2466 57.8369 65.3261 58.6339 65.3791 59.4309C65.4321 60.1748 65.4851 60.9187 65.5645 61.6625C65.644 62.5127 65.7235 63.3628 65.803 64.213C65.803 64.2661 65.8559 64.3192 65.9619 64.4786C66.1738 63.9473 66.3593 63.4957 66.5447 63.044C66.8096 62.433 67.0745 61.8485 67.3395 61.2375C67.4454 60.9718 67.6574 60.839 67.9488 60.839C68.3726 60.839 68.77 60.7858 69.1939 60.839C69.2204 60.839 69.5383 61.1312 69.5648 61.5828C69.5118 62.5127 69.8297 63.4425 70.3595 64.3192Z" fill="#6B6B68"/>
<path d="M49.3777 68.3575C49.3247 68.6232 49.2982 68.7826 49.0333 68.8091C48.3445 68.8888 47.6822 68.7826 47.5763 68.4372C47.3113 68.0121 47.5498 67.4542 47.5233 67.0291C47.4968 66.6041 47.5233 66.1524 47.4968 65.7274C47.4968 64.9038 47.4703 64.0802 47.4438 63.2832C47.4173 62.8581 47.3643 62.5924 47.3113 62.0611C47.0464 62.0611 45.0331 62.1408 44.4238 62.2205C43.9204 62.2736 44.1588 62.2471 43.6025 62.2471C43.576 62.5127 43.682 63.3097 43.682 63.5754C43.6555 64.399 43.6555 65.2226 43.6555 66.0462C43.6555 66.5775 43.629 67.1088 43.6025 67.6667C43.6025 67.8793 43.6025 68.1184 43.5495 68.3309C43.4965 68.5435 43.576 68.57 43.4436 68.7294C43.3641 68.8357 43.1522 68.8623 42.8078 68.8623C42.3574 68.8623 41.96 68.6232 41.7746 68.1981C41.7216 68.0653 41.6686 67.959 41.6686 67.9058C41.6421 67.2682 41.6686 66.6306 41.6686 65.993C41.6686 65.7805 41.6156 60.8656 41.6156 59.9623C41.6156 59.1387 41.6156 58.3151 41.5891 57.4916C41.5627 56.6946 41.5097 56.4289 41.4832 55.6319C41.4832 55.4193 41.4037 54.9943 41.6951 54.888C42.013 54.7552 42.119 54.6755 42.5164 54.7286C42.9137 54.8083 43.2581 56.1632 43.2316 57.1196C43.2051 58.1823 43.3111 59.2184 43.6025 60.3077C44.2913 60.2014 45.4834 60.2811 46.1192 60.2014C46.2252 60.1748 46.9934 60.2014 47.3113 60.1483C47.2319 59.245 47.1524 57.8369 47.0994 56.9337C47.0994 56.8008 47.0199 55.7116 47.0729 55.2334C47.1259 54.7552 47.0994 54.7817 47.5498 54.7817C47.7352 54.7817 47.8942 54.8083 48.0531 54.888C48.477 55.1005 49.0333 55.7116 49.2187 57.1993C49.2187 57.3056 49.4042 58.6605 49.4307 59.6701C49.4572 60.5202 49.4042 61.3969 49.4836 62.2471C49.5631 63.0972 49.6426 63.9739 49.6161 64.8241C49.5896 65.5945 49.5896 66.3915 49.5101 67.162C49.4836 67.4011 49.4572 67.6402 49.4307 67.8793C49.4307 68.0653 49.4042 68.2247 49.3777 68.3575Z" fill="#6B6B68"/>
<path d="M32.953 68.6763C32.7411 68.57 32.4232 68.3044 32.1053 68.0918C31.7874 67.8793 31.549 67.5605 31.4165 67.2151C31.3106 66.9495 31.1781 66.6838 31.0456 66.4181C30.6483 65.7008 30.9662 65.0366 31.2576 64.399C31.496 63.8942 32.0788 63.8145 32.5557 64.1333C32.7941 64.2927 32.7411 64.9835 32.7411 65.4617C32.7676 67.3214 34.0922 67.0292 34.2511 66.9495C34.4366 66.8698 34.675 66.7103 34.781 66.4712C35.2048 65.4883 35.2578 64.4256 34.9929 63.3895C34.8869 63.0175 34.8074 62.619 34.5955 62.3002C34.4101 62.0346 34.0657 61.8751 33.7743 61.6626C33.5888 61.5298 33.4034 61.4235 33.2444 61.2641C32.953 60.9453 32.7146 60.5999 32.3967 60.3343C32.2378 60.2014 32.2378 60.0952 32.1848 59.9358C32.1053 59.5904 32.0258 59.245 31.9464 58.8996C31.7609 58.1558 31.7874 57.4385 32.0788 56.6946C32.1318 56.5883 32.4762 55.4725 32.6616 55.3131C33.006 54.7817 33.5888 54.6489 34.2776 54.6489C36.4499 54.6489 36.7943 55.3928 37.1917 55.8179C37.695 56.3226 37.801 57.7307 37.748 58.3949C37.7215 58.8199 37.4036 59.2184 37.2182 59.6435C37.1917 59.6967 37.1122 59.7498 37.0592 59.7498C36.5294 59.8029 36.291 59.8826 35.8936 59.4841C35.7347 59.3247 35.7347 59.0059 35.7347 58.7668C35.7611 58.3949 35.8671 58.0229 35.9201 57.651C36.0261 56.9602 35.4697 56.668 34.6485 56.3758C34.4366 56.2961 34.2511 56.3226 34.1452 56.482C33.7478 57.0134 33.4034 57.5447 33.5094 58.2089C33.5623 58.5277 33.5094 58.8199 33.5623 59.1387C33.6948 59.9092 34.2511 60.4405 34.9929 60.7593C35.7082 61.0781 36.1055 61.6626 36.5824 62.1939C37.0327 62.6987 37.2182 63.2832 37.2977 63.9208C37.3771 64.5053 37.6156 65.0898 37.5626 65.7008C37.4831 66.6572 37.1387 67.4808 36.291 68.145C35.8406 68.4903 35.3108 68.6497 34.7545 68.756C34.2511 68.8888 33.6418 68.9154 32.953 68.6763Z" fill="#6B6B68"/>
<path d="M59.1535 57.6245C59.127 57.4917 59.0475 57.3854 59.0211 57.2526C58.4912 55.9774 58.2793 55.8445 57.5375 55.1007C57.4581 55.021 57.3256 54.9678 57.2196 54.9147C56.6103 54.6225 55.7361 54.7553 55.0738 54.8084C54.6235 54.8616 54.3321 54.9944 54.1201 55.3132C53.9877 55.4992 53.8817 55.6851 53.8022 55.8977C53.0869 57.598 52.5836 59.3514 52.7426 61.1845C52.7426 61.7158 52.7161 62.2472 52.7426 62.7785C52.8485 64.3726 53.2989 65.8603 54.2526 67.2152C54.6499 67.7731 55.1268 68.3576 55.8421 68.6498C56.9282 69.0484 58.0144 69.0484 58.5707 68.0388C58.8621 67.5075 58.9151 66.9761 59.1535 66.4182C59.7628 64.9305 59.7628 63.3896 59.7628 61.8221C59.7893 60.4938 59.339 58.9263 59.1535 57.6245ZM57.3786 63.6818C57.2991 64.5585 57.3256 65.5946 56.8487 66.3916C56.7693 66.5511 56.4779 67.0027 55.9745 66.7105C54.385 64.6382 54.491 56.615 56.4514 56.8009C56.5044 56.9604 56.6898 57.2526 56.7163 57.412C57.0607 59.5108 57.5375 61.583 57.3786 63.6818Z" fill="#6B6B68"/>
</svg>
