<svg width="105" height="89" viewBox="0 0 105 89" fill="none" xmlns="http://www.w3.org/2000/svg">
<path d="M53.6627 45.5458L55.8591 51.2844L62.1173 51.2618L57.2225 55.0806L59.178 60.9022L53.9569 57.5235L48.9071 61.1441L50.5747 55.2372L45.4981 51.653L51.7505 51.3811L53.6627 45.5458Z" fill="#6B6B68"/>
<path d="M26.6249 71.8159C26.7662 71.7168 26.9154 71.5687 27.0447 71.3919C27.3476 70.9784 27.5161 70.4573 27.519 69.9249C27.5277 68.4146 26.2254 66.8448 24.0303 66.8327L20.6592 66.8149C20.5973 66.8145 20.5464 66.8634 20.546 66.9245L20.4812 78.1092C20.4812 78.1537 20.5076 78.1921 20.5464 78.2099C20.5605 78.2164 20.5762 78.22 20.5927 78.22L24.3253 78.2447C25.7875 78.2528 26.7047 77.6864 27.2162 77.2094C27.8777 76.5928 28.2598 75.7428 28.2648 74.8766C28.2706 73.8857 27.8702 72.8965 27.1939 72.2306C27.003 72.0429 26.8055 71.9 26.6249 71.8159ZM23.1002 69.2343L24.1616 69.2391C24.4 69.2403 24.638 69.3394 24.8145 69.5118C25.0016 69.6947 25.1037 69.9427 25.1024 70.2097C25.1008 70.4856 24.99 70.7409 24.7905 70.9286C24.6033 71.105 24.3538 71.2054 24.1067 71.2042L23.0891 71.1997L23.1002 69.2343ZM24.3282 75.8306L23.0618 75.8213L23.0758 73.3909L24.2901 73.4002C24.7727 73.4027 25.1363 73.5293 25.3706 73.7753C25.6139 74.0306 25.6631 74.3587 25.6619 74.5889C25.6565 75.447 24.9669 75.8342 24.3282 75.8306Z" fill="#6B6B68"/>
<path d="M36.7584 66.9072L29.7085 66.8675C29.6788 66.8675 29.6503 66.8789 29.6288 66.8991C29.6077 66.9197 29.5957 66.9476 29.5953 66.9768L29.53 78.1619C29.53 78.2064 29.5565 78.2448 29.5953 78.2626C29.6094 78.2691 29.6255 78.2727 29.642 78.2727L36.6914 78.3124C36.7212 78.3124 36.7497 78.301 36.7712 78.2808C36.7922 78.2602 36.8042 78.2323 36.8046 78.2031L36.8174 75.9686C36.8174 75.9075 36.7675 75.8578 36.7055 75.8578L32.1181 75.8319L32.1305 73.7418L35.3486 73.7636C35.3788 73.7636 35.4073 73.7523 35.4288 73.7317C35.4503 73.711 35.4623 73.6827 35.4618 73.6532L35.4569 71.4118C35.4569 71.3515 35.4065 71.3026 35.3453 71.3018L32.145 71.2799L32.1565 69.3145L36.7435 69.3399C36.8055 69.3403 36.8563 69.2914 36.8567 69.2303L36.8699 67.0172C36.8699 66.9881 36.8583 66.9602 36.8377 66.9391C36.8166 66.9185 36.7881 66.9072 36.7584 66.9072Z" fill="#6B6B68"/>
<path d="M47.9066 66.9413L45.5495 66.9279C45.4876 66.9275 45.4367 66.9765 45.4363 67.0376L45.4012 72.8781L38.8083 66.9575C38.7761 66.9279 38.7282 66.9202 38.6873 66.9376C38.6464 66.955 38.6199 66.9943 38.6199 67.038L38.5534 78.2247C38.5534 78.2538 38.565 78.2817 38.5856 78.3028C38.5951 78.3121 38.6063 78.3198 38.6183 78.3254C38.6327 78.3319 38.6488 78.3355 38.665 78.3355L41.015 78.3485C41.077 78.3489 41.1278 78.2999 41.1282 78.2388L41.1634 72.5265L47.7641 78.3335C47.7972 78.3622 47.8443 78.3695 47.8848 78.3521C47.9252 78.3347 47.9517 78.2955 47.9517 78.2522L48.0186 67.0517C48.0186 67.0226 48.007 66.9947 47.9864 66.9736C47.9653 66.953 47.9364 66.9413 47.9066 66.9413Z" fill="#6B6B68"/>
<path d="M57.0787 66.8882L50.0288 66.849C49.9668 66.8486 49.916 66.8975 49.9156 66.9586L49.8503 78.1433C49.8503 78.1878 49.8768 78.2262 49.9156 78.244C49.9297 78.2505 49.9458 78.2542 49.9623 78.2542L57.0122 78.2934C57.0419 78.2934 57.0704 78.2821 57.0919 78.2618C57.113 78.2412 57.1249 78.2133 57.1254 78.1842L57.1382 75.9497C57.1382 75.8886 57.0882 75.8392 57.0266 75.8388L52.4392 75.8133L52.4516 73.7232L55.6842 73.7451C55.714 73.7451 55.7429 73.7338 55.764 73.7131C55.7851 73.6925 55.797 73.6646 55.7974 73.6354L55.8107 71.3941C55.8107 71.333 55.7607 71.2836 55.6991 71.2832L52.4661 71.2614L52.4777 69.2959L57.065 69.3214C57.127 69.3218 57.1778 69.2728 57.1782 69.2117L57.1911 66.9987C57.1911 66.9695 57.1795 66.9416 57.1588 66.9206C57.1378 66.9 57.1084 66.8882 57.0787 66.8882Z" fill="#6B6B68"/>
<path d="M66.0802 66.9093L59.0308 66.8696C58.9688 66.8692 58.918 66.9182 58.9175 66.9793L58.8519 78.2056C58.8519 78.2501 58.8783 78.2886 58.9171 78.3064C58.9312 78.3128 58.9469 78.3165 58.9638 78.3165L61.3135 78.3298C61.3432 78.3298 61.3718 78.3185 61.3932 78.2983C61.4143 78.2776 61.4263 78.2497 61.4267 78.2206L61.4523 73.8414L64.6684 73.8632C64.6981 73.8632 64.7271 73.8519 64.7486 73.8313C64.7696 73.8106 64.7816 73.7827 64.782 73.7536L64.7952 71.5126C64.7952 71.4515 64.7453 71.4022 64.6837 71.4018L61.4672 71.3799L61.4788 69.3449L66.0661 69.3704C66.1281 69.3708 66.1789 69.3218 66.1794 69.2607L66.1926 67.0197C66.1926 66.9586 66.1418 66.9093 66.0802 66.9093Z" fill="#6B6B68"/>
<path d="M70.1106 66.9131L67.7605 66.8998C67.7308 66.8998 67.7023 66.9111 67.6808 66.9313C67.6597 66.952 67.6477 66.9799 67.6473 67.009L67.582 78.1937C67.582 78.2382 67.6085 78.2766 67.6473 78.2944C67.6614 78.3009 67.6775 78.3045 67.694 78.3045L70.0441 78.3179C70.0738 78.3179 70.1023 78.3066 70.1238 78.2863C70.1449 78.2657 70.1569 78.2378 70.1573 78.2086L70.2226 67.024C70.2226 66.9629 70.1726 66.9131 70.1106 66.9131Z" fill="#6B6B68"/>
<path d="M79.8096 66.9226L71.7012 66.8773C71.6715 66.8773 71.6429 66.8886 71.6215 66.9089C71.6004 66.9295 71.5884 66.9574 71.588 66.9865L71.5752 69.2138C71.5752 69.2749 71.6252 69.3242 71.6872 69.3246L74.4537 69.34L74.4021 78.1874C74.4021 78.2319 74.4285 78.2703 74.4674 78.2881C74.4814 78.2946 74.4971 78.2983 74.514 78.2983L76.8711 78.3116C76.9009 78.3116 76.9298 78.3003 76.9509 78.2801C76.972 78.2594 76.9839 78.2315 76.9844 78.2024L77.036 69.3546L79.7955 69.3699C79.8253 69.3699 79.8538 69.3586 79.8753 69.3384C79.8964 69.3177 79.9083 69.2898 79.9087 69.2607L79.9216 67.0335C79.9216 66.9724 79.8716 66.9226 79.8096 66.9226Z" fill="#6B6B68"/>
<path d="M70.9523 44.5563C70.9444 44.5846 70.9486 44.6146 70.9634 44.6401L72.3417 46.9802L64.5077 51.3881C64.454 51.4184 64.4354 51.4852 64.466 51.5382L65.6402 53.5571C65.6518 53.5773 65.6695 53.5931 65.6906 53.6024C65.6964 53.6048 65.7022 53.6068 65.7084 53.6084C65.7373 53.6161 65.7679 53.6125 65.7939 53.5975L73.6283 49.1896L75.0034 51.5236C75.0343 51.5766 75.1033 51.5944 75.1566 51.5641L77.1287 50.4543C77.1828 50.424 77.201 50.3568 77.17 50.3042L73.1301 43.4198C73.1156 43.3943 73.0908 43.3761 73.0619 43.3685C73.0334 43.3608 73.0024 43.3648 72.9768 43.3794L71.0047 44.4891C70.9787 44.5037 70.9597 44.528 70.9523 44.5563Z" fill="#6B6B68"/>
<path d="M29.0965 52.375L39.0439 58.0647C39.0472 58.0667 39.0501 58.0683 39.0534 58.0695C39.1054 58.093 39.1678 58.0744 39.1976 58.025L40.3933 56.0272C40.4086 56.0021 40.4127 55.9718 40.4053 55.9439C40.3978 55.9155 40.3792 55.8913 40.3532 55.8767L35.0515 52.8342L43.9296 50.0944C43.9721 50.0815 44.0023 50.045 44.0076 50.0018C44.0126 49.9585 43.9911 49.9164 43.9527 49.8945L34.0491 44.2073C34.0239 44.192 33.9925 44.1883 33.964 44.1956C33.9351 44.2029 33.9103 44.2211 33.8954 44.2466L32.696 46.2505C32.6807 46.2755 32.6766 46.3059 32.684 46.3338C32.6914 46.3621 32.71 46.3864 32.7361 46.401L38.037 49.443L29.12 52.1748C29.0775 52.1877 29.0469 52.2241 29.042 52.2674C29.037 52.3107 29.0581 52.3528 29.0965 52.375Z" fill="#6B6B68"/>
<path d="M50.2013 39.272C50.1832 39.2388 50.1485 39.2166 50.11 39.2141L37.2383 38.3326C37.1961 38.3297 37.1552 38.3504 37.1337 38.386C37.1118 38.422 37.1127 38.4665 37.1358 38.5013L44.1708 49.2842C44.1827 49.3024 44.1993 49.3162 44.2183 49.3251C44.2336 49.3319 44.2505 49.3356 44.2683 49.3352C44.3075 49.3344 44.3435 49.3133 44.3633 49.2802L45.6549 47.0845C45.6759 47.0489 45.6747 47.0044 45.6516 46.9696L44.6058 45.3877L46.9154 41.4616L48.7966 41.6352C48.8404 41.6392 48.8825 41.6178 48.9044 41.5805L50.1997 39.3788C50.2191 39.346 50.2195 39.3056 50.2013 39.272ZM44.4525 41.2379L43.2073 43.3542L41.5695 40.9725L44.4525 41.2379Z" fill="#6B6B68"/>
<path d="M44.8128 37.0926C44.974 37.1849 45.1384 37.2694 45.3061 37.3455C46.5667 37.9172 48.0021 38.0244 49.4056 37.6429C51.0033 37.2083 52.3469 36.1949 53.1881 34.7889C53.9851 33.4575 54.1644 32.0612 53.7533 30.394C53.7397 30.3402 53.6885 30.3045 53.6327 30.3102L51.3446 30.538C51.3123 30.5412 51.283 30.5578 51.2644 30.5837C51.2454 30.6096 51.2392 30.642 51.2466 30.6727C51.5272 31.8391 51.4346 32.8239 50.9706 33.5987C50.5323 34.331 49.7634 34.9022 48.8614 35.166C47.9103 35.444 46.9472 35.3448 46.1494 34.8873C45.3557 34.4317 44.793 33.6642 44.5658 32.7268C44.3459 31.8217 44.4777 30.8722 44.9269 30.1221C45.4037 29.3255 46.2349 28.7412 47.3307 28.4338C47.3612 28.4253 47.3869 28.4038 47.4009 28.3755C47.4149 28.3472 47.4158 28.3144 47.4034 28.2853L46.5349 26.2373C46.5126 26.1851 46.4539 26.158 46.3994 26.1738C44.7352 26.6568 43.5345 27.5267 42.7272 28.8339C41.9021 30.2123 41.6678 31.8412 42.0669 33.4206C42.4665 35.0005 43.4419 36.3045 44.8141 37.0922L44.8128 37.0926Z" fill="#6B6B68"/>
<path d="M45.7524 24.4543L55.5532 30.1096C55.5565 30.1112 55.5598 30.1132 55.5631 30.1149C55.5866 30.1254 55.6131 30.1278 55.6387 30.1217C55.6676 30.1145 55.6924 30.0963 55.7073 30.0708L56.8993 28.0794C56.9145 28.0543 56.9187 28.024 56.9112 27.9961C56.9038 27.9677 56.8852 27.9435 56.8592 27.9289L52.8081 25.6042L58.9143 24.568C58.9473 24.5624 58.9758 24.5425 58.9924 24.5146L60.4236 22.0855C60.4455 22.0487 60.4434 22.003 60.4186 21.9678C60.3938 21.9326 60.3508 21.9148 60.3079 21.9217L52.987 23.1018L50.4563 16.6249C50.4411 16.5852 50.4039 16.5577 50.3605 16.5545C50.3175 16.5508 50.2762 16.5719 50.2543 16.6087L48.8739 18.9148C48.8566 18.9435 48.8537 18.9779 48.8657 19.0091L50.9914 24.5604L47.0316 22.2732C47.006 22.2587 46.9746 22.2542 46.9457 22.2615C46.9163 22.2692 46.892 22.2878 46.8767 22.3133L45.7115 24.3051C45.681 24.3573 45.6996 24.4236 45.7524 24.4543Z" fill="#6B6B68"/>
<path d="M70.5573 39.0661C70.5734 39.0333 70.5717 38.9953 70.5536 38.9638L69.3199 36.8575C69.2967 36.8179 69.2509 36.7964 69.205 36.8033L62.8935 37.7694L66.4756 32.0571C66.4992 32.0195 66.4975 31.9718 66.4715 31.9358C66.4455 31.8998 66.4 31.8828 66.3558 31.8921L60.1438 33.2175L63.5859 27.2677C63.6054 27.2341 63.6054 27.1924 63.5859 27.1589L62.2754 24.9065C62.2555 24.8722 62.2179 24.8511 62.1775 24.8511C62.137 24.8511 62.0998 24.8722 62.0799 24.9065L55.3689 36.4513C55.3474 36.4885 55.3495 36.5346 55.3751 36.5694C55.4003 36.6042 55.4441 36.6216 55.4871 36.6139L61.1569 35.5964L57.9822 40.8944C57.9603 40.9312 57.9619 40.977 57.9863 41.0122C57.9979 41.0292 58.014 41.0421 58.0317 41.0502C58.0516 41.0591 58.0743 41.0623 58.0966 41.0591L70.4738 39.1276C70.5102 39.122 70.5412 39.0985 70.5573 39.0661Z" fill="#6B6B68"/>
<path d="M60.9953 45.6305L62.1658 47.6696C62.1778 47.6898 62.1955 47.706 62.2166 47.7157C62.2224 47.7181 62.2282 47.7202 62.234 47.7218C62.2629 47.7295 62.2939 47.7258 62.3199 47.7113L72.2218 42.1349C72.2751 42.1046 72.2941 42.0378 72.264 41.9852L71.0931 39.9461C71.0782 39.9206 71.053 39.902 71.0249 39.8939C70.996 39.8862 70.965 39.8899 70.939 39.9044L61.0374 45.4804C60.9841 45.5107 60.9651 45.5779 60.9953 45.6305Z" fill="#6B6B68"/>
<path d="M72.7272 65.4677C72.7594 65.4823 72.7982 65.4819 72.8309 65.4633L82.713 59.8542C82.739 59.8396 82.7576 59.8153 82.7654 59.787C82.7729 59.7587 82.7688 59.7287 82.7535 59.7033L81.5198 57.6383C81.4888 57.5861 81.4198 57.5683 81.3665 57.5986L77.51 59.7878L75.3661 56.1664L79.2226 53.9772C79.2486 53.9626 79.2672 53.9384 79.275 53.91C79.2825 53.8817 79.2787 53.8518 79.2635 53.8263L78.0397 51.769C78.0083 51.7164 77.9393 51.699 77.886 51.7289L68.0039 57.3381C67.9778 57.3526 67.9592 57.3769 67.9514 57.4052C67.944 57.4335 67.9477 57.4635 67.963 57.489L69.1868 59.5463C69.2182 59.5989 69.2867 59.6167 69.3405 59.5863L73.2031 57.3939L75.3471 61.0157L71.4844 63.2081C71.4583 63.2227 71.4398 63.247 71.4319 63.2753C71.4245 63.3036 71.4286 63.3336 71.4439 63.3591L72.6772 65.424C72.6892 65.4443 72.7069 65.4588 72.7272 65.4677Z" fill="#6B6B68"/>
<path d="M85.3382 71.5067C85.1288 71.4108 84.9321 71.3247 84.7486 71.2442C83.7736 70.8185 83.2365 70.5827 83.2782 69.9394C83.3273 69.1788 84.2867 69.1104 84.697 69.1165C85.3192 69.1254 85.8609 69.4636 86.184 70.0434C86.1993 70.0705 86.2253 70.0903 86.2559 70.0976C86.2869 70.1049 86.3191 70.0992 86.3455 70.0822L88.0887 68.9376C88.1321 68.9093 88.1494 68.8555 88.1312 68.8078C87.6309 67.4973 86.343 66.7379 84.5991 66.7242C83.5141 66.7153 82.5151 67.0288 81.7854 67.6066C81.0289 68.2061 80.6079 69.061 80.6 70.0142C80.5843 71.8668 82.0763 72.5914 83.3926 73.2307C83.6145 73.3387 83.8463 73.4406 84.0706 73.5398C85.0618 73.9767 85.9981 74.3906 85.9386 75.1921C85.8601 76.2444 84.7404 76.3075 84.2623 76.2857C83.4385 76.248 82.7493 75.843 82.0267 74.9728C81.9899 74.9287 81.9251 74.919 81.8763 74.9509L79.9873 76.1987C79.9394 76.2302 79.9237 76.2925 79.9514 76.3423C80.4001 77.1531 81.0508 77.7527 81.8763 78.1269C82.5279 78.4223 83.2881 78.5772 84.1438 78.5841C86.7488 78.6051 88.5105 77.234 88.5279 75.1714C88.5432 73.3585 87.2636 72.3952 85.3382 71.5067Z" fill="#6B6B68"/>
<path d="M35.6863 57.6662C34.0902 56.7458 32.5991 57.3478 30.8502 58.5352C30.6601 58.6647 30.4854 58.7885 30.3226 58.9038C29.4578 59.5168 28.981 59.8546 28.4336 59.4969C27.7857 59.0745 28.2055 58.2269 28.4162 57.8818C28.7356 57.3591 29.3053 57.0686 29.98 57.0852C30.0119 57.086 30.042 57.0739 30.0639 57.0512C30.0858 57.029 30.0974 56.9986 30.0949 56.9675L29.9557 54.9171C29.9524 54.8661 29.9131 54.824 29.8623 54.8159C28.4534 54.5841 27.1375 55.2949 26.2521 56.7672C25.7013 57.6824 25.4778 58.6865 25.624 59.594C25.7753 60.5355 26.3202 61.3204 27.159 61.8043C28.7885 62.7449 30.1763 61.8431 31.4005 61.0473C31.6071 60.913 31.8137 60.7677 32.0132 60.6273C32.8962 60.0063 33.7299 59.4188 34.4088 59.8712C35.3 60.4643 34.7951 61.445 34.5364 61.8391C34.0911 62.5184 33.3874 62.9003 32.2566 63.0771C32.1992 63.086 32.1583 63.1365 32.162 63.1936L32.3194 65.4196C32.3223 65.4609 32.3483 65.4957 32.3843 65.5119C32.3979 65.5179 32.4128 65.5216 32.4285 65.522C34.1134 65.5673 35.5239 64.7266 36.5089 63.0904C37.8314 60.8927 37.5005 58.7133 35.6863 57.6662Z" fill="#6B6B68"/>
<path d="M52.5925 62.1465C52.578 62.1465 52.5668 62.1417 52.5586 62.1315C52.5503 62.1214 52.5441 62.1097 52.54 62.0955L52.2033 60.3437C52.2033 60.3295 52.2082 60.3178 52.2186 60.3077C52.2289 60.2976 52.2409 60.2927 52.2553 60.2927H52.4669C52.483 60.2927 52.4954 60.2976 52.5036 60.3077C52.5119 60.3178 52.5181 60.3295 52.5218 60.3437L52.7515 61.6905L52.9813 60.3437C52.9854 60.3295 52.9916 60.3178 52.9998 60.3077C53.0081 60.2976 53.0201 60.2927 53.0366 60.2927H53.2482C53.2626 60.2927 53.2746 60.2976 53.2849 60.3077C53.2953 60.3178 53.3002 60.3295 53.3002 60.3437L52.9631 62.0955C52.9589 62.1097 52.9527 62.1214 52.9449 62.1315C52.9366 62.1417 52.9255 62.1465 52.911 62.1465H52.5925Z" fill="#6B6B68"/>
<path d="M54.0508 61.1068H54.2776C54.3041 61.1068 54.3173 61.1198 54.3173 61.1457V61.3168C54.3173 61.3427 54.3041 61.3557 54.2776 61.3557H54.0508V61.8946H54.4276C54.4541 61.8946 54.4673 61.9075 54.4673 61.9334V62.1074C54.4673 62.1333 54.4541 62.1462 54.4276 62.1462H53.7843C53.7699 62.1462 53.7579 62.1414 53.7476 62.1312C53.7372 62.1211 53.7323 62.1094 53.7323 62.0952V60.3434C53.7323 60.3292 53.7372 60.3175 53.7476 60.3074C53.7579 60.2973 53.7699 60.2924 53.7843 60.2924H54.4276C54.4541 60.2924 54.4673 60.3054 54.4673 60.3313V60.502C54.4673 60.5283 54.4541 60.5408 54.4276 60.5408H54.0508V61.1068Z" fill="#6B6B68"/>
<path d="M55.5949 62.0568C55.5644 62.0989 55.5284 62.1272 55.4875 62.1422C55.4466 62.1572 55.4057 62.1648 55.3648 62.1648C55.2851 62.1648 55.2152 62.1523 55.1549 62.1272C55.0946 62.1021 55.0446 62.0669 55.0049 62.022C54.9653 61.9771 54.9347 61.9241 54.9145 61.863C54.8942 61.8019 54.8839 61.7356 54.8839 61.6636V60.7755C54.8839 60.7035 54.8942 60.6367 54.9145 60.5744C54.9347 60.5125 54.9649 60.4591 55.0049 60.4138C55.0446 60.3689 55.0946 60.3337 55.1549 60.3086C55.2152 60.2835 55.2851 60.271 55.3648 60.271C55.4404 60.271 55.5082 60.2835 55.5685 60.3086C55.6288 60.3337 55.6805 60.3677 55.7234 60.4106C55.7664 60.4535 55.799 60.5044 55.8214 60.5635C55.8437 60.6226 55.8552 60.6869 55.8552 60.7569C55.8552 60.771 55.8499 60.7828 55.84 60.7929C55.8296 60.803 55.8176 60.8079 55.8032 60.8079H55.5887C55.5743 60.8079 55.5623 60.803 55.552 60.7929C55.5416 60.7828 55.5367 60.771 55.5367 60.7569C55.5346 60.6707 55.5193 60.6104 55.4908 60.5752C55.4623 60.54 55.4206 60.5226 55.3652 60.5226C55.3099 60.5226 55.2694 60.5404 55.2425 60.5768C55.2161 60.6129 55.2029 60.6748 55.2029 60.763V61.6721C55.2029 61.7603 55.2161 61.8222 55.2425 61.8582C55.269 61.8942 55.3099 61.9124 55.3652 61.9124C55.4206 61.9124 55.4627 61.8946 55.4925 61.8582C55.5218 61.8222 55.5367 61.7623 55.5367 61.6781V61.3933H55.4078C55.3954 61.3933 55.3846 61.3888 55.3756 61.3799C55.3665 61.371 55.3619 61.3605 55.3619 61.3484V61.1862C55.3619 61.174 55.3665 61.1635 55.3756 61.1546C55.3846 61.1457 55.3954 61.1412 55.4078 61.1412H55.8032C55.8176 61.1412 55.8296 61.1461 55.84 61.1562C55.8503 61.1663 55.8552 61.1781 55.8552 61.1922V62.1041C55.8552 62.1143 55.8507 62.1236 55.8416 62.1329C55.8325 62.1418 55.8226 62.1462 55.8123 62.1462H55.6375C55.6251 62.1462 55.6148 62.1418 55.6069 62.1329C55.5991 62.124 55.5945 62.1143 55.5945 62.1041L55.5949 62.0568Z" fill="#6B6B68"/>
<path d="M50.998 64.0636C50.998 64.0494 51.003 64.0373 51.0133 64.0276C51.0237 64.0179 51.0356 64.0126 51.0501 64.0126H51.2645C51.279 64.0126 51.291 64.0179 51.3013 64.0276C51.3116 64.0377 51.3166 64.0494 51.3166 64.0636C51.3187 64.0895 51.3211 64.117 51.3244 64.1461C51.3273 64.1753 51.3356 64.2008 51.3488 64.2226C51.362 64.2445 51.381 64.2631 51.4054 64.278C51.4298 64.293 51.4645 64.3007 51.5095 64.3007C51.5484 64.3007 51.5785 64.2918 51.6 64.2736C51.6215 64.2558 51.6372 64.2352 51.6475 64.2121C51.6579 64.189 51.6641 64.1664 51.6657 64.1445C51.6674 64.1227 51.669 64.1077 51.669 64.0996C51.669 64.0296 51.6525 63.9722 51.6199 63.9273C51.5872 63.8824 51.5459 63.8423 51.4959 63.8071C51.4459 63.7723 51.3918 63.7379 51.3335 63.7035C51.2753 63.6695 51.2211 63.6291 51.1712 63.5822C51.1212 63.5352 51.0798 63.4782 51.0472 63.411C51.0146 63.3443 50.998 63.2597 50.998 63.1577C50.998 63.1116 51.0013 63.0598 51.0088 63.0016C51.0158 62.9437 51.0348 62.8891 51.0654 62.8381C51.096 62.7871 51.1431 62.7447 51.2063 62.7107C51.2695 62.6767 51.3563 62.6597 51.4666 62.6597C51.5769 62.6597 51.6591 62.6787 51.7194 62.7168C51.7797 62.7548 51.8252 62.8001 51.8558 62.8531C51.8863 62.9061 51.9053 62.9607 51.9124 63.0166C51.9194 63.0724 51.9239 63.1185 51.926 63.1545C51.926 63.1687 51.921 63.1804 51.9107 63.1905C51.9004 63.2006 51.8884 63.2055 51.8739 63.2055H51.6595C51.6451 63.2055 51.6331 63.2006 51.6227 63.1905C51.6124 63.1804 51.6075 63.1687 51.6075 63.1545C51.6054 63.1266 51.6029 63.0987 51.5996 63.0708C51.5967 63.0428 51.5909 63.0166 51.5827 62.9927C51.5744 62.9684 51.5612 62.949 51.543 62.934C51.5248 62.919 51.4971 62.9114 51.4604 62.9114C51.4013 62.9114 51.3624 62.9344 51.3439 62.9801C51.3257 63.0263 51.3162 63.078 51.3162 63.1363C51.3162 63.2063 51.3327 63.2637 51.3653 63.3087C51.398 63.3536 51.4393 63.3936 51.4893 63.4288C51.5393 63.4636 51.5934 63.4972 51.6517 63.5292C51.7099 63.5611 51.764 63.5996 51.814 63.6445C51.864 63.6894 51.9053 63.7456 51.938 63.8124C51.9706 63.8795 51.9872 63.9637 51.9872 64.0656C51.9872 64.1615 51.9752 64.2408 51.952 64.3027C51.9285 64.3646 51.8954 64.4144 51.8525 64.4512C51.8095 64.4884 51.7583 64.5143 51.6992 64.5293C51.6401 64.5443 51.5744 64.5519 51.5029 64.5519C51.4397 64.5519 51.3777 64.5434 51.3174 64.5265C51.2571 64.5095 51.203 64.482 51.155 64.4439C51.1071 64.4059 51.0687 64.3557 51.0402 64.2938C51.0117 64.2319 50.9972 64.1546 50.9972 64.0628L50.998 64.0636Z" fill="#6B6B68"/>
<path d="M52.5295 62.929H52.3275C52.3151 62.929 52.3044 62.9246 52.2953 62.9157C52.2862 62.9068 52.2816 62.8963 52.2816 62.8841V62.7251C52.2816 62.713 52.2862 62.7025 52.2953 62.6936C52.3044 62.6843 52.3151 62.6802 52.3275 62.6802H53.0505C53.0629 62.6802 53.0737 62.6847 53.0828 62.6936C53.0919 62.7025 53.0964 62.713 53.0964 62.7251V62.8841C53.0964 62.8963 53.0919 62.9068 53.0828 62.9157C53.0737 62.925 53.0629 62.929 53.0505 62.929H52.8485V64.483C52.8485 64.4972 52.8431 64.5089 52.8332 64.519C52.8229 64.5292 52.8109 64.534 52.7964 64.534H52.582C52.5675 64.534 52.5556 64.5292 52.5452 64.519C52.5349 64.5089 52.5299 64.4972 52.5299 64.483L52.5295 62.929Z" fill="#6B6B68"/>
<path d="M54.0062 62.6802C54.0207 62.6802 54.0319 62.6851 54.0401 62.6952C54.0484 62.7053 54.0546 62.717 54.0583 62.7312L54.3954 64.483C54.3954 64.4972 54.3905 64.5089 54.3801 64.519C54.3698 64.5292 54.3578 64.534 54.3434 64.534H54.1318C54.1153 64.534 54.1033 64.5292 54.0951 64.519C54.0868 64.5089 54.0806 64.4972 54.0765 64.483L54.0228 64.1776H53.6687L53.617 64.483C53.6129 64.4972 53.6067 64.5089 53.5989 64.519C53.5906 64.5292 53.5782 64.534 53.5621 64.534H53.3505C53.3361 64.534 53.3241 64.5292 53.3138 64.519C53.3034 64.5089 53.2985 64.4972 53.2985 64.483L53.6352 62.7312C53.6393 62.717 53.6455 62.7053 53.6538 62.6952C53.6621 62.6851 53.6732 62.6802 53.6877 62.6802H54.0062ZM53.7121 63.9259H53.9802L53.8472 63.1362L53.7121 63.9259Z" fill="#6B6B68"/>
<path d="M55.5933 63.6589L55.7648 64.483C55.7648 64.4972 55.7598 64.5089 55.7495 64.519C55.7391 64.5292 55.7268 64.534 55.7127 64.534H55.5165C55.4999 64.534 55.4879 64.5292 55.4797 64.519C55.4714 64.5089 55.4652 64.4972 55.4611 64.483L55.3293 63.7337C55.2987 63.7398 55.2681 63.7426 55.2376 63.7426H55.1458V64.483C55.1458 64.4972 55.1409 64.5089 55.1306 64.519C55.1202 64.5292 55.1078 64.534 55.0938 64.534H54.8793C54.8649 64.534 54.8529 64.5292 54.8426 64.519C54.8322 64.5089 54.8273 64.4972 54.8273 64.483V62.7312C54.8273 62.717 54.8322 62.7053 54.8426 62.6952C54.8529 62.6851 54.8649 62.6802 54.8793 62.6802H55.2376C55.307 62.6802 55.3739 62.6919 55.4384 62.7146C55.5028 62.7377 55.5598 62.7704 55.6098 62.8137C55.6598 62.857 55.7003 62.9104 55.7309 62.9743C55.7615 63.0383 55.7767 63.1115 55.7767 63.1932C55.7767 63.1932 55.7999 63.5468 55.5933 63.6589ZM55.2256 63.489C55.2896 63.489 55.3425 63.487 55.402 63.4186C55.4735 63.3369 55.4586 63.1993 55.4586 63.1993C55.4586 63.1091 55.4334 63.0419 55.3834 62.9966C55.3334 62.9517 55.2809 62.929 55.2256 62.929H55.1458V63.4886L55.2256 63.489Z" fill="#6B6B68"/>
<path d="M56.1936 64.0636C56.1936 64.0494 56.1986 64.0373 56.2089 64.0276C56.2192 64.0179 56.2312 64.0126 56.2457 64.0126H56.4601C56.4745 64.0126 56.4865 64.0179 56.4969 64.0276C56.5072 64.0377 56.5121 64.0494 56.5121 64.0636C56.5142 64.0895 56.5167 64.117 56.52 64.1461C56.5233 64.1753 56.5312 64.2008 56.5444 64.2226C56.5576 64.2445 56.5766 64.2631 56.601 64.278C56.6254 64.293 56.6601 64.3007 56.7051 64.3007C56.7439 64.3007 56.7741 64.2918 56.7956 64.2736C56.8171 64.2558 56.8328 64.2352 56.8431 64.2121C56.8534 64.189 56.8596 64.1664 56.8613 64.1445C56.8629 64.1227 56.8646 64.1077 56.8646 64.0996C56.8646 64.0296 56.848 63.9722 56.8154 63.9273C56.7828 63.8824 56.7415 63.8423 56.6915 63.8071C56.6415 63.7723 56.5873 63.7379 56.5291 63.7035C56.4708 63.6695 56.4167 63.6291 56.3667 63.5822C56.3167 63.5352 56.2754 63.4782 56.2428 63.411C56.2101 63.3443 56.1936 63.2597 56.1936 63.1577C56.1936 63.1116 56.1969 63.0598 56.2043 63.0016C56.2114 62.9437 56.2304 62.8891 56.2609 62.8381C56.2915 62.7871 56.3386 62.7447 56.4018 62.7107C56.465 62.6767 56.5518 62.6597 56.6621 62.6597C56.7724 62.6597 56.8547 62.6787 56.915 62.7168C56.9753 62.7548 57.0208 62.8001 57.0513 62.8531C57.0819 62.9061 57.1009 62.9607 57.1079 63.0166C57.115 63.0724 57.1195 63.1185 57.1216 63.1545C57.1216 63.1687 57.1166 63.1804 57.1063 63.1905C57.0959 63.2006 57.084 63.2055 57.0695 63.2055H56.8551C56.8406 63.2055 56.8286 63.2006 56.8183 63.1905C56.808 63.1804 56.803 63.1687 56.803 63.1545C56.8009 63.1266 56.7985 63.0987 56.7952 63.0708C56.7923 63.0428 56.7865 63.0166 56.7782 62.9927C56.77 62.9684 56.7567 62.949 56.7386 62.934C56.7204 62.919 56.6927 62.9114 56.6559 62.9114C56.5968 62.9114 56.558 62.9344 56.5394 62.9801C56.5212 63.0263 56.5117 63.078 56.5117 63.1363C56.5117 63.2063 56.5283 63.2637 56.5609 63.3087C56.5935 63.3536 56.6349 63.3936 56.6848 63.4288C56.7348 63.4636 56.789 63.4972 56.8472 63.5292C56.9055 63.5611 56.9596 63.5996 57.0096 63.6445C57.0596 63.6894 57.1009 63.7456 57.1335 63.8124C57.1662 63.8795 57.1827 63.9637 57.1827 64.0656C57.1827 64.1615 57.1707 64.2408 57.1476 64.3027C57.124 64.3646 57.091 64.4144 57.048 64.4512C57.0051 64.4884 56.9538 64.5143 56.8947 64.5293C56.8357 64.5443 56.77 64.5519 56.6985 64.5519C56.6353 64.5519 56.5733 64.5434 56.513 64.5265C56.4527 64.5095 56.3985 64.482 56.3506 64.4439C56.3027 64.4059 56.2642 64.3557 56.2357 64.2938C56.2072 64.2319 56.1928 64.1546 56.1928 64.0628L56.1936 64.0636Z" fill="#6B6B68"/>
</svg>
