<svg width="181" height="81" viewBox="0 0 181 81" fill="none" xmlns="http://www.w3.org/2000/svg">
<path d="M152.421 59.1632C143.614 59.1632 139.049 55.5831 138.861 55.4297C138.485 55.1228 138.459 54.6114 138.754 54.2789C139.076 53.9209 139.613 53.8953 139.989 54.1766C140.016 54.2022 141.09 55.0205 143.131 55.8388C145.037 56.606 148.179 57.501 152.421 57.501C157.496 57.501 161.04 56.248 163.135 55.1995C164.262 54.6369 164.853 54.1766 164.853 54.1766C165.229 53.8953 165.766 53.9209 166.088 54.2789C166.41 54.6369 166.357 55.1484 165.981 55.4297C165.954 55.4552 165.256 55.9923 163.94 56.6571C161.712 57.8079 157.872 59.1632 152.421 59.1632Z" fill="#6B6B68"/>
<path d="M167.323 54.4067L165.847 57.4498C165.605 57.9612 164.853 58.0124 164.531 57.5265L162.463 54.3555C162.141 53.8697 162.517 53.2559 163.135 53.2815L166.706 53.4094C167.189 53.4094 167.538 53.9464 167.323 54.4067Z" fill="#6B6B68"/>
<path d="M152.663 24.1291C152.663 23.2852 153.388 22.5947 154.247 22.5947C155.133 22.5947 155.831 23.2852 155.831 24.1291C155.831 24.973 155.106 25.6634 154.247 25.6634C153.388 25.6378 152.663 24.973 152.663 24.1291Z" fill="#6B6B68"/>
<path d="M150.837 49.6758C149.736 49.6758 148.823 49.2155 148.205 48.3716C145.252 44.1522 151.401 29.7038 151.454 29.576C151.723 28.9622 152.448 28.6809 153.092 28.9111C153.737 29.1668 154.032 29.8573 153.764 30.471C151.83 34.9717 148.716 44.7915 150.273 47.0163C150.38 47.1697 150.515 47.272 150.81 47.272C154.005 47.272 156.073 41.0579 156.556 38.8843C156.69 38.245 157.362 37.8103 158.033 37.9637C158.704 38.0916 159.134 38.7309 159 39.3957C158.973 39.498 158.436 41.9018 157.281 44.3312C156.126 46.7606 154.032 49.6758 150.837 49.6758Z" fill="#6B6B68"/>
<path d="M167.619 31.0591C166.733 31.0591 165.739 31.3404 164.746 31.8774C162.92 32.8747 161.255 34.6136 160.1 36.7873C157.845 41.0067 158.194 45.712 160.879 47.0162C162.114 47.6299 163.698 47.4509 165.363 46.5559C167.189 45.5586 168.854 43.8197 170.008 41.646C171.163 39.4724 171.673 37.1964 171.458 35.1762C171.244 33.3606 170.465 32.0053 169.23 31.4171C168.746 31.1869 168.183 31.0591 167.619 31.0591ZM162.49 49.8036C161.524 49.8036 160.584 49.599 159.725 49.1899C155.697 47.2208 154.865 41.288 157.845 35.7388C159.214 33.156 161.228 31.0591 163.484 29.8316C165.9 28.5018 168.344 28.3228 170.358 29.3202C172.371 30.3175 173.633 32.3121 173.929 34.9716C174.197 37.4266 173.607 40.214 172.21 42.7968C170.841 45.3796 168.827 47.4765 166.572 48.704C165.202 49.42 163.806 49.8036 162.49 49.8036Z" fill="#6B6B68"/>
<path d="M173.714 49.6758C172.613 49.6758 171.7 49.2155 171.082 48.3716C168.129 44.1522 174.278 29.7038 174.331 29.576C174.6 28.9622 175.325 28.6809 175.969 28.9111C176.614 29.1668 176.909 29.8573 176.641 30.471C174.707 34.9717 171.593 44.7915 173.15 47.0163C173.257 47.1697 173.392 47.272 173.687 47.272C175.54 47.272 176.936 45.2007 177.795 43.4617C178.091 42.8736 178.842 42.6179 179.46 42.8991C180.078 43.1804 180.346 43.8965 180.051 44.5102C178.923 46.8629 176.855 49.6758 173.714 49.6758Z" fill="#6B6B68"/>
<path d="M143.882 31.2126C143.453 31.2126 142.782 31.5962 142.325 32.4656C141.869 33.284 142.03 33.7187 142.083 33.8465C142.218 34.179 142.54 34.5114 143.023 34.8183C143.399 34.0767 143.641 33.5397 143.721 33.3351C143.748 33.284 143.775 33.2328 143.802 33.1817C144.339 32.1588 144.366 31.5706 144.285 31.366C144.285 31.3405 144.258 31.2893 144.07 31.2126C144.017 31.2126 143.936 31.2126 143.882 31.2126ZM132.632 49.5479C131.316 49.5479 130.188 49.0109 129.41 48.0392C126.725 44.6636 128.336 35.9946 129.329 31.8263C127.477 32.2099 125.651 31.9286 123.905 31.008C123.288 30.6756 123.073 29.9596 123.422 29.3714C123.771 28.7832 124.523 28.5786 125.141 28.9111C126.859 29.8317 128.577 29.8317 130.538 28.8855C130.967 28.6809 131.504 28.7321 131.88 29.039C132.256 29.3458 132.417 29.8317 132.31 30.292C130.913 35.2786 129.41 44.101 131.424 46.6071C131.746 47.0163 132.122 47.1953 132.659 47.1953C134.511 47.1953 137.143 44.7404 139.882 40.4698C140.634 39.2934 141.332 38.0915 141.896 37.0431C140.795 36.4038 140.07 35.611 139.721 34.716C139.345 33.6931 139.452 32.5935 140.07 31.4172C141.144 29.4225 143.184 28.3996 144.93 29.039C145.735 29.3202 146.299 29.8573 146.594 30.5733C147.078 31.8008 146.594 33.2328 146.057 34.2557C146.057 34.2557 146.057 34.2557 146.057 34.2813C146.031 34.3324 145.789 34.895 145.359 35.7645C147.427 35.9435 149.28 34.6649 149.951 33.7443C150.327 33.2072 151.132 33.0538 151.696 33.4374C152.26 33.821 152.421 34.5626 152.018 35.0996C150.783 36.8641 147.561 38.782 144.205 38.0148C143.587 39.1656 142.835 40.4442 142.003 41.774C138.593 46.9907 135.532 49.5479 132.632 49.5479Z" fill="#6B6B68"/>
<path d="M2.29747 36.0458C1.35768 33.7443 0.793814 32.8237 0.0151367 32.0053V31.9542H6.67417V32.0053C6.2177 32.6702 5.97605 34.179 6.67417 35.9179L9.09075 41.9785L11.3999 36.5061C12.2323 34.3836 11.6953 32.6958 11.1851 32.0053V31.9542H14.8906V32.0053C13.7897 33.1305 13.1989 34.0256 12.2592 36.1736L7.69451 46.9651H6.86213L2.29747 36.0458Z" fill="#6B6B68"/>
<path d="M22.9995 44.4079V39.6259C20.583 40.2141 18.7034 41.3137 18.7034 43.0782C18.7034 44.28 19.5089 45.0472 20.9589 45.0472C21.8181 45.0216 22.5162 44.7404 22.9995 44.4079ZM23.1069 44.9449C22.1135 46.1213 20.5561 47.1441 18.5154 47.1441C16.5822 47.1441 15.0248 46.3003 15.0248 44.3312C15.0248 41.1091 19.5089 39.7026 23.0264 39.0633V36.3782C23.0264 34.6649 22.3283 33.7443 20.0191 33.7443C18.7571 33.7443 17.2266 34.0256 15.8035 34.8694L15.6424 34.6649C17.0923 32.9259 19.4552 31.4939 22.5699 31.4939C25.8994 31.4939 27.1346 33.1817 27.1346 35.3042V43.6152C27.1346 44.3568 27.4568 44.9705 28.4503 44.9705C28.8799 44.9705 29.3364 44.8426 29.8734 44.4846L29.9271 44.5869C29.4169 45.5842 28.4503 47.093 26.1411 47.093C24.3152 47.0674 23.3218 46.1468 23.1069 44.9449Z" fill="#6B6B68"/>
<path d="M44.2923 42.9247C43.4331 45.4819 41.3119 47.1441 37.9555 47.1441C33.4983 47.1441 30.5715 44.1778 30.5715 39.6259C30.5715 34.895 34.3843 31.4939 39.0833 31.4939C41.2582 31.4939 42.5739 31.9286 43.3794 32.2611L43.809 36.1225L43.5137 36.1481C42.198 34.0767 40.211 32.0565 38.5999 32.0565C36.2908 32.0565 34.6528 34.358 34.6528 37.9893C34.6528 42.1831 36.9889 44.1266 40.0767 44.1266C41.6072 44.1266 43.1915 43.7175 44.0775 42.7713L44.2923 42.9247Z" fill="#6B6B68"/>
<path d="M53.8781 44.4079V39.6259C51.4615 40.2141 49.582 41.3137 49.582 43.0782C49.582 44.28 50.3875 45.0472 51.8375 45.0472C52.6698 45.0216 53.3948 44.7404 53.8781 44.4079ZM53.9587 44.9449C52.9652 46.1468 51.4347 47.1441 49.3672 47.1441C47.4339 47.1441 45.8765 46.3003 45.8765 44.3312C45.8765 41.1091 50.3607 39.7026 53.8781 39.0633V36.3782C53.8781 34.6649 53.18 33.7443 50.8708 33.7443C49.6088 33.7443 48.0783 34.0256 46.6552 34.8694L46.4941 34.6649C47.9441 32.9259 50.3069 31.4939 53.4217 31.4939C56.7512 31.4939 57.9863 33.1817 57.9863 35.3042V43.6152C57.9863 44.3568 58.3085 44.9705 59.302 44.9705C59.7316 44.9705 60.1881 44.8426 60.7251 44.4846L60.7788 44.5869C60.2686 45.5842 59.302 47.093 56.9928 47.093C55.1938 47.0674 54.1735 46.1468 53.9587 44.9449Z" fill="#6B6B68"/>
<path d="M62.9806 43.1804V32.5424H61.2084V32.3378L66.7666 28.4508H67.0888V31.9286H71.0896V32.5424H67.0888V43.0526C67.0888 44.7403 67.948 45.4052 69.3711 45.4052C70.4988 45.4052 71.2775 44.9705 71.3581 44.8938L71.4655 44.9961C70.66 46.198 69.1295 47.1441 66.9814 47.1441C64.7527 47.1441 62.9806 46.1468 62.9806 43.1804Z" fill="#6B6B68"/>
<path d="M83.253 43.4106C82.3133 45.0984 80.7828 47.1441 78.0171 47.1441C75.2246 47.1441 73.7747 45.1495 73.7747 42.1064V35.4065C73.7747 33.6931 73.2645 32.7725 72.4858 32.0309V31.9286H77.856V41.8251C77.856 43.564 78.6884 44.6125 80.3263 44.6125C81.6957 44.6125 82.5818 43.8453 83.1188 42.848V35.3553C83.1188 33.6675 82.6355 32.7469 81.7762 31.9798V31.9286H87.2001V40.9556C87.2001 44.2545 87.576 44.9705 88.7038 45.84V45.8911L83.2799 47.0419V43.4362L83.253 43.4106Z" fill="#6B6B68"/>
<path d="M91.013 46.6838V46.6327C91.5231 45.0472 91.7648 43.6919 91.7648 41.0068V37.4522C91.7648 35.3297 91.1741 34.1534 90.2611 33.0794V33.0282L95.7656 31.3405V35.074H95.7924C97.1081 33.7187 98.7729 31.3916 101.189 31.4939L100.894 35.8668H100.706C100.035 35.1252 98.4238 34.5626 97.6451 34.5626C97.135 34.5626 96.4637 34.9717 95.8461 35.6622V41.0068C95.8461 43.6152 95.9804 45.0728 96.598 46.6327V46.6838H91.013Z" fill="#6B6B68"/>
<path d="M106.452 37.1454L112.359 37.0175V36.3015C112.359 33.3351 111.473 32.0309 109.782 32.0309C107.714 32.0309 106.613 34.3324 106.452 37.1454ZM116.441 42.4644C115.582 45.1495 113.299 47.1441 109.809 47.1441C105.271 47.1441 102.317 43.8453 102.317 39.5747C102.317 34.716 106.023 31.4683 109.97 31.4683C114.105 31.4683 116.548 34.8439 116.468 37.6824L106.479 37.6568V37.7591C106.479 42.3366 108.735 44.1522 111.93 44.1522C113.997 44.1522 115.394 43.3594 116.253 42.3877L116.441 42.4644Z" fill="#6B6B68"/>
</svg>
