<svg width="105" height="81" viewBox="0 0 105 81" fill="none" xmlns="http://www.w3.org/2000/svg">
<path d="M87.8962 49.828V30.2619H104.551V34.5946H93.5722V37.8375H103.521V42.1703H93.5722V45.4831H104.551V49.8277L87.8962 49.828Z" fill="#6B6B68"/>
<path d="M51.0758 50.8724C48.1203 50.8724 45.6046 49.8631 43.5684 47.8058C41.5321 45.7485 40.5334 43.2059 40.5334 40.2197C40.5334 37.2335 41.5318 34.7333 43.5689 32.6745C45.6061 30.6155 48.1205 29.5674 51.0758 29.5674C54.031 29.5674 56.5469 30.6165 58.5831 32.6743C60.6194 34.7321 61.6584 37.2345 61.6584 40.2197C61.6584 43.2049 60.6197 45.7479 58.5831 47.8058C56.5466 49.8636 54.0312 50.8724 51.0758 50.8724ZM51.0758 45.7882C52.6335 45.7882 53.9107 45.2637 54.9495 44.2142C55.9884 43.1647 56.5065 41.8339 56.5065 40.2197C56.5065 38.6055 55.9879 37.2749 54.9495 36.2256C53.9112 35.1764 52.6337 34.6521 51.0758 34.6521C49.5178 34.6521 48.2412 35.1761 47.2022 36.2256C46.2036 37.2747 45.6848 38.6054 45.6848 40.2197C45.6848 41.8341 46.2034 43.1656 47.2018 44.214C48.2405 45.2635 49.5178 45.7882 51.0758 45.7882Z" fill="#6B6B68"/>
<path d="M27.5497 30.2697L20.3204 45.1555V30.2667H10.0297L0.550781 49.8241H6.06728L14.6524 32.3164L14.6401 49.8332L22.5603 49.8325C23.1821 49.8325 23.7629 49.433 24.0414 48.8712L32.256 32.2998V49.8328H37.924V30.2667L27.5497 30.2697Z" fill="#6B6B68"/>
<path d="M79.8628 30.2741L69.936 47.8126V30.2741H64.268V49.8328H73.7602C74.3906 49.8328 74.9744 49.4962 75.2958 48.9475L86.222 30.2741H79.8628Z" fill="#6B6B68"/>
</svg>
