<svg width="173" height="34" viewBox="0 0 173 34" fill="none" xmlns="http://www.w3.org/2000/svg">
<path fill-rule="evenodd" clip-rule="evenodd" d="M23.7547 25.1684L32.3701 8.32629H24.384L21.3233 14.2263L21.1612 14.2265V8.32643H15.7015L12.7514 14.2635L12.5894 14.2642V8.32643H5.37012V15.5457H11.7936C9.41544 18.046 5.37012 18.2849 5.37012 18.2849V25.1684C11.6937 24.5915 16.1317 22.0496 19.1062 18.1883H19.268L15.6625 25.1684H23.7547ZM66.5178 14.1331V15.2411H64.9897V21.224H63.6094V15.2411H62.5107V14.1331H63.6094V13.3114C63.6094 12.8682 63.7063 12.5004 63.9002 12.208C64.0941 11.9126 64.3511 11.6925 64.6712 11.5479C64.9912 11.4002 65.339 11.3263 65.7145 11.3263C65.9915 11.3263 66.2285 11.3494 66.4254 11.3955C66.6224 11.4386 66.7686 11.4786 66.864 11.5156L66.5408 12.6328C66.4762 12.6143 66.3931 12.5927 66.2915 12.5681C66.19 12.5404 66.0669 12.5266 65.9222 12.5266C65.5868 12.5266 65.3467 12.6097 65.2021 12.7759C65.0605 12.9421 64.9897 13.1821 64.9897 13.496V14.1331H66.5178ZM42.3701 21.224V11.7695H45.7401C46.4757 11.7695 47.0851 11.9034 47.5683 12.1711C48.0515 12.4389 48.4131 12.8051 48.6531 13.2698C48.8932 13.7315 49.0132 14.2516 49.0132 14.8302C49.0132 15.4119 48.8917 15.9351 48.6485 16.3998C48.4085 16.8615 48.0453 17.2277 47.559 17.4985C47.0758 17.7663 46.468 17.9002 45.7355 17.9002H43.7966V21.224H42.3701ZM45.6063 16.6906H43.7966V12.9928H45.5878C46.0618 12.9928 46.4434 13.0713 46.7327 13.2283C47.0251 13.3852 47.239 13.6022 47.3744 13.8792C47.5098 14.1562 47.5775 14.4732 47.5775 14.8302C47.5775 15.1872 47.5098 15.5057 47.3744 15.7858C47.239 16.0659 47.0266 16.2875 46.7373 16.4506C46.448 16.6106 46.071 16.6906 45.6063 16.6906ZM50.5748 21.224V14.1331H51.9089V15.2595H51.9828C52.112 14.8779 52.3398 14.5778 52.666 14.3593C52.9953 14.1377 53.3677 14.0269 53.7832 14.0269C53.8694 14.0269 53.9709 14.03 54.0879 14.0362C54.2079 14.0423 54.3018 14.05 54.3695 14.0592V15.3796C54.3141 15.3642 54.2156 15.3472 54.074 15.3288C53.9325 15.3072 53.7909 15.2965 53.6493 15.2965C53.3231 15.2965 53.0323 15.3657 52.7768 15.5042C52.5244 15.6396 52.3244 15.8289 52.1767 16.072C52.0289 16.3121 51.9551 16.586 51.9551 16.8938V21.224H50.5748ZM56.5566 20.9101C57.0521 21.2148 57.6322 21.3671 58.297 21.3671C58.9617 21.3671 59.5419 21.2148 60.0374 20.9101C60.5329 20.6054 60.9176 20.1792 61.1915 19.6313C61.4654 19.0835 61.6024 18.4434 61.6024 17.7109C61.6024 16.9753 61.4654 16.3321 61.1915 15.7812C60.9176 15.2303 60.5329 14.8025 60.0374 14.4978C59.5419 14.1931 58.9617 14.0408 58.297 14.0408C57.6322 14.0408 57.0521 14.1931 56.5566 14.4978C56.0611 14.8025 55.6763 15.2303 55.4024 15.7812C55.1285 16.3321 54.9916 16.9753 54.9916 17.7109C54.9916 18.4434 55.1285 19.0835 55.4024 19.6313C55.6763 20.1792 56.0611 20.6054 56.5566 20.9101ZM59.3726 19.8668C59.0895 20.0945 58.7325 20.2084 58.3016 20.2084C57.8676 20.2084 57.5075 20.0945 57.2213 19.8668C56.9382 19.639 56.7274 19.3359 56.5889 18.9573C56.4534 18.5788 56.3857 18.1618 56.3857 17.7063C56.3857 17.2539 56.4534 16.8384 56.5889 16.4598C56.7274 16.0782 56.9382 15.772 57.2213 15.5411C57.5075 15.3103 57.8676 15.1949 58.3016 15.1949C58.7325 15.1949 59.0895 15.3103 59.3726 15.5411C59.6557 15.772 59.865 16.0782 60.0004 16.4598C60.1389 16.8384 60.2082 17.2539 60.2082 17.7063C60.2082 18.1618 60.1389 18.5788 60.0004 18.9573C59.865 19.3359 59.6557 19.639 59.3726 19.8668ZM68.9137 20.9193C69.4184 21.2179 70.0201 21.3671 70.7188 21.3671C71.2358 21.3671 71.6959 21.2887 72.0991 21.1317C72.5053 20.9717 72.8423 20.7485 73.1101 20.4623C73.3809 20.173 73.5687 19.836 73.6733 19.4513L72.3668 19.2159C72.2837 19.4374 72.1637 19.6236 72.0067 19.7744C71.8498 19.9253 71.6636 20.0391 71.4482 20.1161C71.2327 20.1899 70.9942 20.2269 70.7326 20.2269C70.3294 20.2269 69.977 20.1407 69.6754 19.9683C69.3738 19.7929 69.1384 19.539 68.9691 19.2066C68.8144 18.8971 68.7317 18.5263 68.721 18.0941H73.761V17.6047C73.761 16.9615 73.6748 16.4152 73.5025 15.9659C73.3301 15.5134 73.0947 15.1457 72.7962 14.8625C72.4976 14.5794 72.1606 14.3716 71.7852 14.2393C71.4097 14.107 71.0219 14.0408 70.6218 14.0408C69.9632 14.0408 69.3877 14.1962 68.8952 14.507C68.4059 14.8179 68.0243 15.2503 67.7504 15.8043C67.4795 16.3583 67.3441 16.9984 67.3441 17.7247C67.3441 18.4603 67.4795 19.102 67.7504 19.6498C68.0243 20.1945 68.4121 20.6177 68.9137 20.9193ZM68.7233 17.06C68.7399 16.7551 68.8157 16.4705 68.9506 16.2059C69.1076 15.9012 69.3292 15.655 69.6154 15.4673C69.9047 15.2765 70.2433 15.1811 70.631 15.1811C70.988 15.1811 71.2989 15.2626 71.5636 15.4257C71.8313 15.5888 72.0391 15.812 72.1868 16.0951C72.3345 16.3752 72.4084 16.6968 72.4084 17.06H68.7233ZM80.6061 15.8643L79.355 16.0859C79.3027 15.9258 79.2196 15.7735 79.1057 15.6289C78.9949 15.4842 78.8441 15.3657 78.6533 15.2734C78.4625 15.1811 78.224 15.1349 77.9378 15.1349C77.5469 15.1349 77.2207 15.2226 76.9591 15.398C76.6975 15.5704 76.5667 15.7935 76.5667 16.0674C76.5667 16.3044 76.6544 16.4952 76.8298 16.6399C77.0052 16.7845 77.2884 16.903 77.6792 16.9953L78.8057 17.2539C79.4581 17.4047 79.9444 17.637 80.2645 17.9509C80.5845 18.2649 80.7446 18.6726 80.7446 19.1743C80.7446 19.599 80.6215 19.9776 80.3753 20.31C80.1321 20.6393 79.7921 20.8978 79.355 21.0855C78.9211 21.2733 78.4179 21.3671 77.8454 21.3671C77.0514 21.3671 76.4036 21.1979 75.9019 20.8593C75.4002 20.5177 75.0925 20.033 74.9786 19.4051L76.3128 19.202C76.3959 19.5498 76.5667 19.8129 76.8252 19.9914C77.0837 20.1668 77.4207 20.2546 77.8362 20.2546C78.2886 20.2546 78.6502 20.1607 78.9211 19.973C79.1919 19.7821 79.3273 19.5498 79.3273 19.2759C79.3273 19.0543 79.2442 18.8681 79.078 18.7173C78.9149 18.5665 78.6641 18.4526 78.3255 18.3757L77.1253 18.1125C76.4636 17.9617 75.9742 17.7217 75.6572 17.3923C75.3433 17.063 75.1863 16.646 75.1863 16.1413C75.1863 15.7227 75.3033 15.3565 75.5372 15.0426C75.7711 14.7286 76.0943 14.484 76.5067 14.3085C76.9191 14.13 77.3915 14.0408 77.9239 14.0408C78.6903 14.0408 79.2935 14.207 79.7336 14.5394C80.1737 14.8687 80.4645 15.3103 80.6061 15.8643ZM86.3248 16.0859L87.5758 15.8643C87.4342 15.3103 87.1434 14.8687 86.7033 14.5394C86.2632 14.207 85.66 14.0408 84.8936 14.0408C84.3612 14.0408 83.8888 14.13 83.4764 14.3085C83.064 14.484 82.7408 14.7286 82.5069 15.0426C82.273 15.3565 82.1561 15.7227 82.1561 16.1413C82.1561 16.646 82.313 17.063 82.627 17.3923C82.944 17.7217 83.4333 17.9617 84.095 18.1125L85.2953 18.3757C85.6338 18.4526 85.8847 18.5665 86.0478 18.7173C86.214 18.8681 86.2971 19.0543 86.2971 19.2759C86.2971 19.5498 86.1616 19.7821 85.8908 19.973C85.62 20.1607 85.2583 20.2546 84.8059 20.2546C84.3904 20.2546 84.0534 20.1668 83.7949 19.9914C83.5364 19.8129 83.3656 19.5498 83.2825 19.202L81.9483 19.4051C82.0622 20.033 82.37 20.5177 82.8716 20.8593C83.3733 21.1979 84.0211 21.3671 84.8152 21.3671C85.3876 21.3671 85.8908 21.2733 86.3248 21.0855C86.7618 20.8978 87.1019 20.6393 87.345 20.31C87.5912 19.9776 87.7143 19.599 87.7143 19.1743C87.7143 18.6726 87.5543 18.2649 87.2342 17.9509C86.9141 17.637 86.4279 17.4047 85.7754 17.2539L84.649 16.9953C84.2581 16.903 83.975 16.7845 83.7995 16.6399C83.6241 16.4952 83.5364 16.3044 83.5364 16.0674C83.5364 15.7935 83.6672 15.5704 83.9288 15.398C84.1904 15.2226 84.5166 15.1349 84.9075 15.1349C85.1937 15.1349 85.4322 15.1811 85.623 15.2734C85.8139 15.3657 85.9647 15.4842 86.0755 15.6289C86.1893 15.7735 86.2724 15.9258 86.3248 16.0859ZM89.232 21.224V14.1331H90.6123V21.224H89.232ZM89.9291 13.039C89.689 13.039 89.4828 12.959 89.3105 12.799C89.1412 12.6358 89.0565 12.4419 89.0565 12.2173C89.0565 11.9895 89.1412 11.7956 89.3105 11.6356C89.4828 11.4725 89.689 11.3909 89.9291 11.3909C90.1691 11.3909 90.3738 11.4725 90.5431 11.6356C90.7154 11.7956 90.8016 11.9895 90.8016 12.2173C90.8016 12.4419 90.7154 12.6358 90.5431 12.799C90.3738 12.959 90.1691 13.039 89.9291 13.039ZM93.7157 20.9101C94.2112 21.2148 94.7914 21.3671 95.4561 21.3671C96.1209 21.3671 96.7011 21.2148 97.1966 20.9101C97.6921 20.6054 98.0768 20.1792 98.3507 19.6313C98.6246 19.0835 98.7615 18.4434 98.7615 17.7109C98.7615 16.9753 98.6246 16.3321 98.3507 15.7812C98.0768 15.2303 97.6921 14.8025 97.1966 14.4978C96.7011 14.1931 96.1209 14.0408 95.4561 14.0408C94.7914 14.0408 94.2112 14.1931 93.7157 14.4978C93.2202 14.8025 92.8355 15.2303 92.5616 15.7812C92.2877 16.3321 92.1507 16.9753 92.1507 17.7109C92.1507 18.4434 92.2877 19.0835 92.5616 19.6313C92.8355 20.1792 93.2202 20.6054 93.7157 20.9101ZM96.5318 19.8668C96.2486 20.0945 95.8916 20.2084 95.4608 20.2084C95.0268 20.2084 94.6667 20.0945 94.3805 19.8668C94.0974 19.639 93.8865 19.3359 93.748 18.9573C93.6126 18.5788 93.5449 18.1618 93.5449 17.7063C93.5449 17.2539 93.6126 16.8384 93.748 16.4598C93.8865 16.0782 94.0974 15.772 94.3805 15.5411C94.6667 15.3103 95.0268 15.1949 95.4608 15.1949C95.8916 15.1949 96.2486 15.3103 96.5318 15.5411C96.8149 15.772 97.0242 16.0782 97.1596 16.4598C97.2981 16.8384 97.3674 17.2539 97.3674 17.7063C97.3674 18.1618 97.2981 18.5788 97.1596 18.9573C97.0242 19.3359 96.8149 19.639 96.5318 19.8668ZM101.683 17.0138V21.224H100.302V14.1331H101.627V15.2872H101.715C101.878 14.9118 102.133 14.6101 102.481 14.3824C102.832 14.1547 103.274 14.0408 103.806 14.0408C104.289 14.0408 104.713 14.1423 105.076 14.3455C105.439 14.5455 105.72 14.844 105.921 15.2411C106.121 15.6381 106.221 16.129 106.221 16.7137V21.224H104.84V16.8799C104.84 16.3659 104.706 15.9643 104.439 15.675C104.171 15.3826 103.803 15.2365 103.335 15.2365C103.015 15.2365 102.731 15.3057 102.481 15.4442C102.235 15.5827 102.04 15.7858 101.895 16.0536C101.753 16.3182 101.683 16.6383 101.683 17.0138ZM108.917 21.1317C109.28 21.2979 109.686 21.381 110.135 21.381C110.526 21.381 110.862 21.324 111.142 21.2102C111.422 21.0963 111.651 20.9532 111.83 20.7808C112.008 20.6085 112.142 20.4331 112.231 20.2546H112.287V21.224H113.635V16.5152C113.635 15.9982 113.545 15.5781 113.367 15.2549C113.188 14.9287 112.959 14.6779 112.679 14.5024C112.402 14.327 112.104 14.207 111.783 14.1423C111.466 14.0746 111.166 14.0408 110.883 14.0408C110.455 14.0408 110.048 14.1023 109.66 14.2254C109.272 14.3455 108.929 14.5394 108.63 14.8071C108.335 15.0718 108.11 15.4196 107.956 15.8504L109.254 16.1459C109.355 15.8966 109.538 15.6704 109.803 15.4673C110.071 15.2611 110.437 15.158 110.902 15.158C111.348 15.158 111.683 15.2688 111.908 15.4904C112.136 15.7119 112.25 16.0243 112.25 16.4275V16.4598C112.25 16.626 112.19 16.746 112.07 16.8199C111.95 16.8938 111.757 16.9476 111.493 16.9815L110.459 17.1015C110.123 17.1415 109.794 17.2 109.471 17.2769C109.147 17.3539 108.855 17.4677 108.593 17.6186C108.332 17.7694 108.124 17.974 107.97 18.2325C107.816 18.4911 107.739 18.8204 107.739 19.2205C107.739 19.6852 107.844 20.0776 108.053 20.3977C108.266 20.7177 108.553 20.9624 108.917 21.1317ZM111.414 20.0468C111.143 20.1976 110.817 20.273 110.435 20.273C110.045 20.273 109.723 20.1869 109.471 20.0145C109.218 19.8391 109.092 19.5806 109.092 19.2389C109.092 18.9927 109.157 18.7958 109.286 18.648C109.418 18.4972 109.594 18.3818 109.812 18.3018C110.034 18.2218 110.279 18.1648 110.546 18.131C110.66 18.1156 110.802 18.0971 110.971 18.0756C111.14 18.051 111.314 18.0248 111.493 17.9971C111.671 17.9663 111.83 17.9309 111.968 17.8909C112.11 17.8478 112.205 17.8017 112.254 17.7524V18.6665C112.254 18.9466 112.182 19.2097 112.037 19.4559C111.896 19.699 111.688 19.896 111.414 20.0468ZM116.854 11.7695V21.224H115.473V11.7695H116.854ZM122.262 11.7695V21.224H123.688V17.9002H125.627C126.36 17.9002 126.967 17.7663 127.451 17.4985C127.937 17.2277 128.3 16.8615 128.54 16.3998C128.783 15.9351 128.905 15.4119 128.905 14.8302C128.905 14.2516 128.785 13.7315 128.545 13.2698C128.305 12.8051 127.943 12.4389 127.46 12.1711C126.977 11.9034 126.367 11.7695 125.632 11.7695H122.262ZM123.688 16.6906H125.498C125.963 16.6906 126.34 16.6106 126.629 16.4506C126.918 16.2875 127.131 16.0659 127.266 15.7858C127.401 15.5057 127.469 15.1872 127.469 14.8302C127.469 14.4732 127.401 14.1562 127.266 13.8792C127.131 13.6022 126.917 13.3852 126.624 13.2283C126.335 13.0713 125.953 12.9928 125.479 12.9928H123.688V16.6906ZM132.466 21.381C132.017 21.381 131.611 21.2979 131.248 21.1317C130.885 20.9624 130.597 20.7177 130.384 20.3977C130.175 20.0776 130.07 19.6852 130.07 19.2205C130.07 18.8204 130.147 18.4911 130.301 18.2325C130.455 17.974 130.663 17.7694 130.925 17.6186C131.186 17.4677 131.479 17.3539 131.802 17.2769C132.125 17.2 132.454 17.1415 132.79 17.1015L133.824 16.9815C134.088 16.9476 134.281 16.8938 134.401 16.8199C134.521 16.746 134.581 16.626 134.581 16.4598V16.4275C134.581 16.0243 134.467 15.7119 134.239 15.4904C134.014 15.2688 133.679 15.158 133.233 15.158C132.768 15.158 132.402 15.2611 132.134 15.4673C131.869 15.6704 131.686 15.8966 131.585 16.1459L130.287 15.8504C130.441 15.4196 130.666 15.0718 130.961 14.8071C131.26 14.5394 131.603 14.3455 131.991 14.2254C132.379 14.1023 132.787 14.0408 133.214 14.0408C133.497 14.0408 133.798 14.0746 134.115 14.1423C134.435 14.207 134.733 14.327 135.01 14.5024C135.29 14.6779 135.519 14.9287 135.698 15.2549C135.876 15.5781 135.966 15.9982 135.966 16.5152V21.224H134.618V20.2546H134.562C134.473 20.4331 134.339 20.6085 134.161 20.7808C133.982 20.9532 133.753 21.0963 133.473 21.2102C133.193 21.324 132.857 21.381 132.466 21.381ZM132.767 20.273C133.148 20.273 133.474 20.1976 133.745 20.0468C134.019 19.896 134.227 19.699 134.368 19.4559C134.513 19.2097 134.585 18.9466 134.585 18.6665V17.7524C134.536 17.8017 134.441 17.8478 134.299 17.8909C134.161 17.9309 134.002 17.9663 133.824 17.9971C133.645 18.0248 133.471 18.051 133.302 18.0756C133.133 18.0971 132.991 18.1156 132.877 18.131C132.61 18.1648 132.365 18.2218 132.143 18.3018C131.925 18.3818 131.749 18.4972 131.617 18.648C131.488 18.7958 131.423 18.9927 131.423 19.2389C131.423 19.5806 131.549 19.8391 131.802 20.0145C132.054 20.1869 132.376 20.273 132.767 20.273ZM137.804 14.1331V21.224H139.185V16.8938C139.185 16.586 139.258 16.3121 139.406 16.072C139.554 15.8289 139.754 15.6396 140.006 15.5042C140.262 15.3657 140.553 15.2965 140.879 15.2965C141.02 15.2965 141.162 15.3072 141.304 15.3288C141.445 15.3472 141.544 15.3642 141.599 15.3796V14.0592C141.531 14.05 141.437 14.0423 141.317 14.0362C141.2 14.03 141.099 14.0269 141.013 14.0269C140.597 14.0269 140.225 14.1377 139.896 14.3593C139.569 14.5778 139.342 14.8779 139.212 15.2595H139.138V14.1331H137.804ZM146.522 14.1331V15.2411H145.068V19.142C145.068 19.4097 145.108 19.6113 145.188 19.7467C145.268 19.8791 145.371 19.9699 145.498 20.0191C145.627 20.0653 145.767 20.0884 145.918 20.0884C146.029 20.0884 146.125 20.0807 146.209 20.0653C146.292 20.0499 146.356 20.0376 146.402 20.0284L146.652 21.1686C146.572 21.1994 146.458 21.2302 146.31 21.261C146.162 21.2948 145.978 21.3133 145.756 21.3164C145.393 21.3225 145.054 21.2579 144.741 21.1225C144.427 20.987 144.173 20.7778 143.979 20.4946C143.785 20.2115 143.688 19.856 143.688 19.4282V15.2411H142.649V14.1331H143.688V12.4342H145.068V14.1331H146.522ZM149.43 21.224V17.0138C149.43 16.6383 149.5 16.3182 149.642 16.0536C149.787 15.7858 149.982 15.5827 150.228 15.4442C150.478 15.3057 150.762 15.2365 151.082 15.2365C151.55 15.2365 151.918 15.3826 152.186 15.675C152.453 15.9643 152.587 16.3659 152.587 16.8799V21.224H153.968V16.7137C153.968 16.129 153.868 15.6381 153.668 15.2411C153.468 14.844 153.186 14.5455 152.823 14.3455C152.46 14.1423 152.036 14.0408 151.553 14.0408C151.021 14.0408 150.579 14.1547 150.228 14.3824C149.881 14.6101 149.625 14.9118 149.462 15.2872H149.374V14.1331H148.049V21.224H149.43ZM158.875 21.3671C158.176 21.3671 157.575 21.2179 157.07 20.9193C156.568 20.6177 156.181 20.1945 155.907 19.6498C155.636 19.102 155.5 18.4603 155.5 17.7247C155.5 16.9984 155.636 16.3583 155.907 15.8043C156.181 15.2503 156.562 14.8179 157.051 14.507C157.544 14.1962 158.119 14.0408 158.778 14.0408C159.178 14.0408 159.566 14.107 159.941 14.2393C160.317 14.3716 160.654 14.5794 160.952 14.8625C161.251 15.1457 161.486 15.5134 161.659 15.9659C161.831 16.4152 161.917 16.9615 161.917 17.6047V18.0941H156.877C156.888 18.5263 156.971 18.8971 157.125 19.2066C157.295 19.539 157.53 19.7929 157.832 19.9683C158.133 20.1407 158.486 20.2269 158.889 20.2269C159.15 20.2269 159.389 20.1899 159.604 20.1161C159.82 20.0391 160.006 19.9253 160.163 19.7744C160.32 19.6236 160.44 19.4374 160.523 19.2159L161.83 19.4513C161.725 19.836 161.537 20.173 161.266 20.4623C160.999 20.7485 160.662 20.9717 160.255 21.1317C159.852 21.2887 159.392 21.3671 158.875 21.3671ZM157.107 16.2059C156.972 16.4705 156.896 16.7551 156.88 17.06H160.565C160.565 16.6968 160.491 16.3752 160.343 16.0951C160.195 15.812 159.988 15.5888 159.72 15.4257C159.455 15.2626 159.144 15.1811 158.787 15.1811C158.4 15.1811 158.061 15.2765 157.772 15.4673C157.485 15.655 157.264 15.9012 157.107 16.2059ZM163.449 14.1331V21.224H164.829V16.8938C164.829 16.586 164.903 16.3121 165.051 16.072C165.198 15.8289 165.398 15.6396 165.651 15.5042C165.906 15.3657 166.197 15.2965 166.523 15.2965C166.665 15.2965 166.806 15.3072 166.948 15.3288C167.09 15.3472 167.188 15.3642 167.244 15.3796V14.0592C167.176 14.05 167.082 14.0423 166.962 14.0362C166.845 14.03 166.743 14.0269 166.657 14.0269C166.242 14.0269 165.869 14.1377 165.54 14.3593C165.214 14.5778 164.986 14.8779 164.857 15.2595H164.783V14.1331H163.449Z" fill="white"/>
</svg>
