<svg width="2080" height="306" viewBox="0 0 2080 306" fill="none" xmlns="http://www.w3.org/2000/svg">
<path fill-rule="evenodd" clip-rule="evenodd" d="M1114.78 145.032C1114.78 145.032 1099.75 135.742 1090.47 132.148C1090.47 132.148 1061.71 118.822 1056.01 112.481C1056.01 112.481 1044.8 101.92 1051.36 89.6537C1051.36 89.6537 1054.11 81.627 1065.95 81.627C1065.95 81.627 1081.37 82.4749 1081.37 95.1462V113.021H1136.62L1136.53 86.6955C1136.53 86.6955 1140.77 43.5843 1071.44 41.686C1071.44 41.686 1016.91 38.1014 1001.28 67.4717C1001.28 67.4717 995.137 74.0242 995.137 96.8421V113.329C995.137 113.329 994.511 132.351 1004.22 144.608C1004.22 144.608 1009.72 152.644 1023.25 161.509C1023.25 161.509 1050.72 176.3 1067.2 184.77C1067.2 184.77 1083.85 194.271 1081.66 209.39C1081.66 209.39 1080.3 224.914 1064.23 224.278C1064.23 224.278 1049.53 223.622 1049.53 208.397V190.532H990.657V216.482C990.657 216.482 989.009 266.107 1064.66 266.107C1064.66 266.107 1136.95 267.572 1140.32 215.181V194.05C1140.31 194.05 1142.88 161.943 1114.78 145.032ZM831.904 47.8626L813.403 163.802H809.077L791.404 48.9033H699.111L694.486 258.861H749.132L749.787 100.668H754.084L783.05 258.832H840.538L869.147 100.725H872.953L874.274 258.861H929.208L923.292 47.8626H831.904ZM506.614 48.7395L470.258 258.62H529.085L550.621 95.8882H555.459L576.985 258.62H635.803L599.456 48.7395H506.614ZM1741 142.141V173.101H1756.09V206.335C1756.09 222.582 1742.2 222.88 1742.2 222.88C1725.32 222.88 1725.96 207.444 1725.96 207.444V92.4867C1725.96 80.6441 1740.94 80.0081 1740.94 80.0081C1755.32 80.0081 1755.41 94.1345 1755.41 94.1345V111.614H1810.8C1812.61 77.4931 1805.81 69.2352 1805.81 69.2352C1792.07 38.3809 1740.09 40.0672 1740.09 40.0672C1660.22 40.0672 1669.08 101.352 1669.08 101.352V212.502C1670.8 269.981 1749.51 264.141 1750.84 264.093C1785.84 260.22 1796.41 249.09 1796.41 249.09C1806.15 241.863 1808.65 231.851 1808.65 231.851C1811.44 226.022 1812.13 207.444 1812.13 207.444V142.141H1741ZM1557.4 176.3H1555L1498.79 47.9204H1431.54V258.88H1486.27L1483 130.52H1485.44L1543.67 258.88H1608.88V47.9011H1553.45L1557.4 176.3ZM1297.94 206.316C1297.94 206.316 1298.73 223.632 1282.67 223.632C1282.67 223.632 1265.79 224.538 1265.79 206.75L1265.62 48.0457H1205.59V205.487C1205.59 205.487 1199.43 265.076 1283.52 265.076C1283.52 265.076 1356.6 265.943 1356.6 208.224V48.0553H1297.94V206.316ZM392.168 145.032C392.168 145.032 377.165 135.742 367.866 132.158C367.866 132.158 339.132 118.841 333.427 112.491C333.427 112.491 322.221 101.911 328.792 89.673C328.792 89.673 331.529 81.6462 343.362 81.6462C343.362 81.6462 358.789 82.4845 358.789 95.1558V113.031H414.061L413.955 86.6955C413.955 86.6955 418.175 43.5843 348.874 41.6956C348.874 41.6956 343.651 41.3583 335.99 41.7438C335.99 41.7438 294.006 43.9986 278.994 67.0285C278.907 67.2019 278.782 67.3273 278.695 67.4814C278.695 67.4814 272.566 74.0242 272.566 96.8518V113.339C272.566 113.339 271.93 132.36 281.653 144.617C281.653 144.617 287.146 152.654 300.675 161.519C300.675 161.519 328.137 176.31 344.624 184.78C344.624 184.78 361.285 194.262 359.078 209.4C359.078 209.4 357.719 224.923 341.656 224.287C341.656 224.287 326.961 223.632 326.961 208.407V190.532H268.076V216.501C268.076 216.501 266.428 266.126 342.08 266.126C342.08 266.126 414.35 267.591 417.751 215.2V194.088C417.751 194.069 420.276 161.943 392.168 145.032Z" fill="#6B6B68"/>
</svg>
